<svg width="1512" height="588" viewBox="0 0 1512 588" fill="none" xmlns="http://www.w3.org/2000/svg">
<path d="M-133.621 174.009C-46.1536 158.574 41.7418 146.154 129.927 159.247C238.577 173.624 339.254 225.033 442.756 258.982C498.761 277.336 556.333 289.597 615.16 291.928C652.722 293.559 690.394 291.344 727.719 286.702C830.318 273.888 932.031 244.115 1035.89 243.588C1143.25 241.494 1246.33 275.16 1344.15 317.175C1436.54 356.82 1529.89 397.696 1623.48 434.524" stroke="url(#paint0_radial_595_1281)" stroke-miterlimit="10"/>
<path d="M-133.123 175.651C-45.9261 159.779 41.5634 147.535 129.569 159.058C237.809 173.231 338.553 222.234 442.093 256.04C447.324 257.743 452.561 259.396 457.815 261.007C508.801 276.554 560.923 287.02 614.033 289.528C651.47 291.441 689.014 289.6 726.233 285.338C805.465 276.197 884.245 256.896 964.185 248.044C987.311 245.496 1010.52 244.006 1033.83 243.621C1140.94 241.86 1243.86 273.241 1341.69 314.743C1396.45 337.725 1451.23 361.88 1506.33 385.243C1545.76 401.978 1585.34 418.278 1624.96 433.861" stroke="url(#paint1_radial_595_1281)" stroke-miterlimit="10"/>
<path d="M-132.626 177.294C-45.6976 160.994 41.4942 148.224 129.211 158.869C237.165 171.973 337.844 219.446 441.439 253.086C446.659 254.78 451.896 256.433 457.138 258.025C508.081 273.536 560.04 284.097 612.924 287.097C650.247 289.211 687.65 287.814 724.763 283.932C803.703 275.581 882.276 257.101 962.281 248.193C985.366 245.639 1008.52 244.103 1031.78 243.622C1138.64 241.422 1241.26 271.645 1339.26 312.279C1394.86 335.337 1450.33 359.932 1506.19 383.77C1546.13 400.851 1586.26 417.382 1626.46 433.166" stroke="url(#paint2_radial_595_1281)" stroke-miterlimit="10"/>
<path d="M-132.129 178.926C-45.4701 162.198 41.433 148.892 128.852 158.67C236.52 170.705 337.142 216.637 440.774 250.123C445.984 251.808 451.21 253.452 456.451 255.044C507.342 270.529 559.137 281.276 611.804 284.666C649.012 287.061 686.278 286.038 723.272 282.529C801.932 274.965 880.276 257.309 960.347 248.345C983.381 245.785 1006.49 244.193 1029.7 243.616C1136.31 240.977 1238.72 269.833 1336.79 309.807C1393.28 332.836 1449.4 357.976 1506.02 382.299C1546.46 399.717 1587.15 416.48 1627.92 432.483" stroke="url(#paint3_radial_595_1281)" stroke-miterlimit="10"/>
<path d="M-131.632 180.569C-45.2426 163.403 41.3637 149.581 128.494 158.481C235.886 169.446 336.443 213.848 440.12 247.169C445.329 248.845 450.544 250.48 455.775 252.063C506.622 267.511 558.244 278.464 610.694 282.235C647.786 284.902 684.915 284.262 721.803 281.134C800.171 274.359 878.307 257.525 958.444 248.504C981.438 245.948 1004.5 244.29 1027.65 243.627C1134.01 240.549 1236.21 268.028 1334.35 307.364C1391.73 330.364 1448.51 356.058 1505.88 380.846C1546.82 398.6 1588.08 415.595 1629.42 431.808" stroke="url(#paint4_radial_595_1281)" stroke-miterlimit="10"/>
<path d="M-131.136 182.201C-45.0051 164.606 41.2927 150.25 128.135 158.282C235.242 168.178 335.741 211.039 439.465 244.206C444.663 245.872 449.867 247.498 455.088 249.082C505.883 264.505 557.341 275.643 609.575 279.805C646.551 282.752 683.553 282.485 720.323 279.729C798.4 273.743 876.319 257.741 956.519 248.655C979.463 246.094 1002.48 244.389 1025.58 243.62C1131.68 240.103 1233.69 266.204 1331.88 304.893C1390.16 327.853 1447.59 354.101 1505.71 379.365C1547.16 397.466 1588.97 414.682 1630.88 431.116" stroke="url(#paint5_radial_595_1281)" stroke-miterlimit="10"/>
<path d="M-130.638 183.844C-44.7775 165.811 41.2226 150.928 127.777 158.093C234.598 166.92 335.041 208.24 438.801 241.253C443.987 242.9 449.191 244.526 454.402 246.111C505.154 261.498 556.439 272.832 608.457 277.394C645.318 280.623 682.181 280.72 718.845 278.354C796.631 273.157 874.342 257.977 954.598 248.836C977.501 246.278 1000.46 244.508 1023.52 243.643C1129.36 239.687 1231.18 264.389 1329.43 302.45C1388.61 325.37 1446.68 352.174 1505.55 377.913C1547.51 396.351 1589.88 413.808 1632.36 430.442" stroke="url(#paint6_radial_595_1281)" stroke-miterlimit="10"/>
<path d="M-130.141 185.486C-44.5491 167.026 41.1533 151.617 127.428 157.894C233.963 165.652 334.34 205.441 438.156 238.289C443.331 239.927 448.525 241.543 453.735 243.118C504.444 258.479 555.565 270.008 607.356 274.952C644.092 278.463 680.827 278.933 717.384 276.938C794.878 272.53 872.372 258.173 952.703 248.974C975.555 246.411 998.474 244.585 1021.48 243.634C1127.07 239.239 1228.7 262.542 1327 299.976C1387.08 322.856 1445.79 350.215 1505.43 376.438C1547.89 395.223 1590.82 412.901 1633.87 429.746" stroke="url(#paint7_radial_595_1281)" stroke-miterlimit="10"/>
<path d="M-129.644 187.119C-44.3215 168.23 41.0822 152.286 127.069 157.694C233.318 164.384 333.639 202.632 437.501 235.325C442.675 236.953 447.858 238.56 453.058 240.136C503.714 255.462 554.672 267.186 606.247 272.521C642.866 276.313 679.465 277.156 715.905 275.544C793.108 271.924 870.393 258.389 950.779 249.135C973.592 246.575 996.465 244.693 1019.41 243.637C1124.75 238.802 1226.18 260.687 1324.54 297.514C1385.52 320.344 1444.88 348.269 1505.27 374.967C1548.24 394.087 1591.73 411.998 1635.35 429.062" stroke="url(#paint8_radial_595_1281)" stroke-miterlimit="10"/>
<path d="M-129.147 188.761C-44.094 169.435 41.012 152.965 126.711 157.505C232.674 163.126 332.939 199.843 436.837 232.372C442.001 233.991 447.172 235.59 452.362 237.166C502.976 252.465 553.76 264.376 605.118 270.101C641.621 274.165 678.082 275.382 714.416 274.15C791.337 271.319 868.394 258.606 948.856 249.296C971.618 246.731 994.446 244.792 1017.35 243.65C1122.42 238.376 1223.69 258.841 1322.08 295.061C1383.97 317.841 1443.96 346.342 1505.11 373.505C1548.58 392.973 1592.63 411.104 1636.82 428.379" stroke="url(#paint9_radial_595_1281)" stroke-miterlimit="10"/>
<path d="M-128.65 190.403C-43.8656 170.649 40.9418 153.644 126.352 157.316C232.03 161.868 332.238 197.044 436.183 229.418C441.336 231.028 446.507 232.617 451.686 234.184C502.246 249.448 552.867 261.564 603.999 267.671C640.386 272.016 676.71 273.606 712.936 272.746C789.567 270.713 866.415 258.812 946.931 249.437C969.653 246.875 992.426 244.881 1015.28 243.633C1120.1 237.93 1221.18 256.955 1319.62 292.58C1382.41 315.31 1443.04 344.376 1504.94 372.014C1548.93 391.817 1593.53 410.19 1638.3 427.666" stroke="url(#paint10_radial_595_1281)" stroke-miterlimit="10"/>
<path d="M-128.153 192.036C-43.6389 171.844 40.8708 154.313 125.993 157.118C231.385 160.59 331.528 194.246 435.528 226.455C440.67 228.056 445.83 229.635 451.009 231.203C501.526 246.44 551.975 258.752 602.89 265.249C639.162 269.876 675.348 271.84 711.467 271.36C787.807 270.117 864.437 259.039 945.018 249.607C967.69 247.04 990.428 244.989 1013.23 243.645C1117.8 237.503 1218.72 255.086 1317.18 290.127C1380.88 312.795 1442.14 342.438 1504.8 370.561C1549.28 390.712 1594.45 409.306 1639.78 427.002" stroke="url(#paint11_radial_595_1281)" stroke-miterlimit="10"/>
<path d="M-127.656 193.678C-43.4105 173.058 40.8007 154.992 125.635 156.928C230.741 159.332 330.827 191.447 434.865 223.512C440.006 225.103 445.155 226.673 450.323 228.232C500.787 243.433 551.072 255.94 601.771 262.829C637.928 267.737 673.986 270.074 709.978 269.967C786.026 269.512 862.423 259.087 943.095 249.768C965.713 247.155 988.409 245.088 1011.16 243.658C1115.47 237.077 1216.22 253.22 1314.72 287.674C1379.34 310.282 1441.22 340.502 1504.65 369.099C1549.64 389.586 1595.36 408.411 1641.27 426.317" stroke="url(#paint12_radial_595_1281)" stroke-miterlimit="10"/>
<path d="M-127.159 195.311C-43.183 174.263 40.7296 155.661 125.276 156.729C230.095 158.054 330.126 188.638 434.21 220.548C439.34 222.13 444.488 223.69 449.647 225.25C500.068 240.425 550.18 253.128 600.661 260.397C636.693 265.588 672.623 268.287 708.509 268.571C784.266 268.905 860.454 259.292 941.182 249.928C963.759 247.309 986.4 245.196 1009.1 243.66C1113.16 236.639 1213.75 251.321 1312.27 285.221C1377.8 307.759 1440.32 338.574 1504.5 367.636C1550 388.469 1596.28 407.527 1642.75 425.633" stroke="url(#paint13_radial_595_1281)" stroke-miterlimit="10"/>
<path d="M-126.662 196.953C-42.9554 175.468 40.6594 156.34 124.918 156.54C229.451 156.796 329.426 185.849 433.546 217.595C438.664 219.158 443.803 220.72 448.951 222.28C499.319 237.42 549.277 250.317 599.533 257.978C635.448 263.45 671.241 266.523 707.02 267.178C782.485 268.301 858.454 259.5 939.249 250.09C961.775 247.465 984.371 245.296 1007.03 243.674C1110.82 236.215 1211.26 249.434 1309.81 282.77C1376.25 305.246 1439.46 336.502 1504.33 366.176C1550.37 387.252 1597.17 406.634 1644.22 424.961" stroke="url(#paint14_radial_595_1281)" stroke-miterlimit="10"/>
<path d="M-126.165 198.596C-42.727 176.682 40.5884 157.009 124.56 156.351C228.806 155.529 328.716 183.051 432.892 214.642C438.009 216.195 443.137 217.747 448.274 219.298C498.6 234.412 548.385 247.505 598.423 255.547C634.223 261.3 669.878 264.747 705.549 265.772C780.734 267.683 856.484 259.695 937.344 250.239C959.83 247.608 982.382 245.393 1004.98 243.665C1108.53 235.766 1208.79 247.516 1307.37 280.296C1374.73 302.691 1438.57 334.534 1504.18 364.702C1550.74 386.104 1598.1 405.729 1645.71 424.266" stroke="url(#paint15_radial_595_1281)" stroke-miterlimit="10"/>
<path d="M-125.668 200.228C-42.5003 177.877 40.5173 157.677 124.201 156.152C228.151 154.252 328.015 180.252 432.237 211.678C437.343 213.222 442.46 214.765 447.598 216.316C497.88 231.394 547.492 244.693 597.315 253.125C632.999 259.16 668.516 262.97 704.081 264.387C778.974 267.087 854.504 259.901 935.432 250.409C957.867 247.772 980.374 245.501 1002.92 243.677C1106.21 235.34 1206.33 245.616 1304.91 277.844C1373.19 300.167 1437.66 332.586 1504.02 363.241C1551.09 384.979 1599 404.835 1647.18 423.593" stroke="url(#paint16_radial_595_1281)" stroke-miterlimit="10"/>
<path d="M-125.171 201.87C-42.2719 179.091 40.4471 158.356 123.853 155.962C227.516 152.983 327.324 177.452 431.583 208.724C436.679 210.259 441.795 211.802 446.922 213.344C497.152 228.396 546.601 241.891 596.206 250.704C631.775 257.02 667.154 261.204 702.602 262.992C777.203 266.481 852.515 260.108 933.518 250.569C955.912 247.926 978.381 245.788 1000.86 243.689C1103.82 234.067 1203.86 243.707 1302.47 275.391C1371.67 297.622 1436.76 330.638 1503.88 361.777C1551.47 383.851 1599.93 403.95 1648.68 422.908" stroke="url(#paint17_radial_595_1281)" stroke-miterlimit="10"/>
<path d="M-124.673 203.513C-42.0435 180.306 40.3761 159.025 123.494 155.763C226.87 151.705 326.623 174.643 430.928 205.761C436.013 207.286 441.119 208.82 446.234 210.353C496.421 225.369 545.697 239.06 595.085 248.264C630.539 254.87 665.781 259.418 701.121 261.588C775.432 265.865 850.535 260.304 931.594 250.72C953.938 248.081 976.361 245.877 998.795 243.682C1101.49 233.661 1201.39 241.768 1300.01 272.919C1370.12 295.068 1435.86 328.68 1503.72 360.296C1551.82 382.706 1600.83 403.036 1650.15 422.205" stroke="url(#paint18_radial_595_1281)" stroke-miterlimit="10"/>
<path d="M-124.177 205.145C-41.8168 181.5 40.305 159.694 123.135 155.564C226.225 150.427 325.922 171.844 430.273 202.797C435.357 204.313 440.452 205.838 445.558 207.372C495.692 222.362 544.804 236.248 593.976 245.832C629.304 252.721 664.427 257.631 699.651 260.182C773.67 265.249 848.554 260.5 929.68 250.87C951.983 248.225 974.345 245.785 996.737 243.685C1099.26 234.04 1198.93 239.838 1297.56 270.456C1368.6 292.513 1434.95 326.723 1503.57 358.833C1552.18 381.57 1601.74 402.142 1651.63 421.531" stroke="url(#paint19_radial_595_1281)" stroke-miterlimit="10"/>
<path d="M-123.679 206.788C-41.5884 182.715 40.234 160.363 122.777 155.375C225.58 149.159 325.212 169.046 429.609 199.844C434.682 201.351 439.766 202.867 444.871 204.391C494.962 219.345 543.902 233.437 592.856 243.402C628.069 250.572 663.054 255.856 698.172 258.788C771.9 264.643 846.575 260.707 927.766 251.02C950.018 248.369 972.336 245.884 994.678 243.677C1096.94 233.594 1196.47 237.889 1295.11 267.983C1367.08 289.948 1434.05 324.755 1503.42 357.351C1552.53 380.424 1602.66 401.228 1653.12 420.827" stroke="url(#paint20_radial_595_1281)" stroke-miterlimit="10"/>
<path d="M-123.183 208.42C-41.3617 183.91 40.1629 161.032 122.417 155.176C224.924 147.882 324.511 166.247 428.954 196.88C434.015 198.368 439.099 199.884 444.194 201.409C494.233 216.337 543.009 230.625 591.747 240.98C626.845 248.432 661.693 254.089 696.703 257.393C770.139 264.037 844.594 260.903 925.852 251.18C948.064 248.523 970.327 245.982 992.63 243.678C1094.63 233.156 1194.03 235.937 1292.67 265.519C1365.56 287.382 1433.17 322.796 1503.28 355.878C1552.9 379.287 1603.58 400.332 1654.61 420.132" stroke="url(#paint21_radial_595_1281)" stroke-miterlimit="10"/>
<path d="M-122.696 210.064C-41.1432 185.125 40.072 161.703 122.049 154.988C224.27 146.615 323.801 163.449 428.29 193.928C433.35 195.406 438.414 196.913 443.499 198.439C493.494 213.331 542.098 227.825 590.609 238.562C625.591 246.295 660.301 252.326 695.194 256.001C768.349 263.433 842.585 261.111 923.909 251.343C946.071 248.68 968.288 246.083 990.544 243.693C1092.28 232.733 1191.53 234 1290.19 263.07C1364 284.83 1432.22 320.852 1503.09 354.419C1553.22 378.164 1604.45 399.441 1656.06 419.461" stroke="url(#paint22_radial_595_1281)" stroke-miterlimit="10"/>
<path d="M-122.198 211.706C-40.9048 186.339 40.0835 163.187 121.691 154.799C223.524 144.322 323.101 160.66 427.626 190.985C432.676 192.454 437.739 193.951 442.813 195.468C492.765 210.334 541.196 225.023 589.49 236.141C624.348 244.167 658.928 250.55 693.715 254.616C766.579 262.837 840.596 261.328 921.987 251.514C944.098 248.846 966.271 246.202 988.477 243.706C1089.97 232.306 1189.07 232.05 1287.73 260.628C1362.48 282.275 1431.32 318.924 1502.94 352.976C1553.58 377.047 1605.37 398.567 1657.55 418.797" stroke="url(#paint23_radial_595_1281)" stroke-miterlimit="10"/>
<path d="M-121.702 213.338C-40.6773 187.543 39.9298 163.04 121.342 154.599C222.978 144.059 322.4 157.851 426.981 188.02C432.02 189.48 437.072 190.968 442.146 192.485C492.045 207.316 540.314 222.211 588.39 233.709C623.132 242.016 657.576 248.773 692.255 253.21C764.828 262.22 838.626 261.523 920.083 251.663C942.152 248.988 964.28 246.289 986.429 243.707C1087.66 231.878 1186.64 230.088 1285.29 258.164C1360.97 279.699 1430.43 316.965 1502.8 351.503C1553.95 375.91 1606.29 397.661 1659.04 418.112" stroke="url(#paint24_radial_595_1281)" stroke-miterlimit="10"/>
<path d="M-121.204 214.981C-40.4498 188.748 39.8588 163.709 120.984 154.41C222.333 142.792 321.699 155.052 426.317 185.068C431.346 186.518 436.396 187.997 441.461 189.514C491.317 204.318 539.413 219.419 587.272 231.289C621.898 239.877 656.214 247.006 690.776 251.825C763.058 261.624 836.647 261.739 918.17 251.833C940.19 249.163 962.273 246.407 984.372 243.72C1085.34 231.452 1184.19 228.128 1282.85 255.711C1359.45 277.132 1429.53 315.017 1502.65 350.041C1554.31 374.784 1607.21 396.777 1660.53 417.427" stroke="url(#paint25_radial_595_1281)" stroke-miterlimit="10"/>
<path d="M-120.707 216.623C-40.2222 189.953 39.7877 164.378 120.625 154.211C221.678 141.515 320.999 152.253 425.662 182.104C430.69 183.545 435.72 185.015 440.773 186.524C490.576 201.292 538.51 216.598 586.152 228.858C620.664 237.738 654.841 245.221 689.286 250.422C761.276 261.01 834.646 261.927 916.236 251.985C938.215 249.308 960.243 246.497 982.293 243.714C1083 231.007 1181.72 226.138 1280.38 253.24C1357.92 274.538 1428.6 313.051 1502.48 348.56C1554.64 373.64 1608.1 395.864 1661.99 416.725" stroke="url(#paint26_radial_595_1281)" stroke-miterlimit="10"/>
<path d="M-120.211 218.255C-39.9947 191.157 39.7058 165.038 120.267 154.022C221.032 140.237 320.298 149.454 425.008 179.15C430.025 180.582 435.054 182.042 440.097 183.552C489.858 198.294 537.618 213.796 585.043 226.437C619.43 235.598 653.479 243.455 687.817 249.026C759.516 260.403 832.676 262.133 914.333 252.144C936.261 249.462 958.245 246.604 980.246 243.725C1080.7 230.59 1179.28 224.167 1277.93 250.787C1356.4 271.962 1427.71 311.103 1502.33 347.107C1555.01 372.513 1609.02 394.98 1663.48 416.061" stroke="url(#paint27_radial_595_1281)" stroke-miterlimit="10"/>
<path d="M-119.713 219.898C-39.7663 192.372 39.6348 165.707 119.908 153.823C220.376 138.95 319.587 146.656 424.343 176.188C429.349 177.61 434.367 179.061 439.41 180.561C489.117 195.268 536.715 210.975 583.923 223.997C618.195 233.449 652.105 241.669 686.337 247.622C757.754 259.787 830.686 262.33 912.408 252.295C934.296 249.606 956.235 246.693 978.177 243.718C1078.37 230.144 1176.82 222.176 1275.47 248.315C1354.88 269.357 1426.8 309.145 1502.18 345.625C1555.37 371.367 1609.93 394.065 1664.96 415.357" stroke="url(#paint28_radial_595_1281)" stroke-miterlimit="10"/>
<path d="M-119.217 221.53C-39.5387 193.576 39.5537 166.377 119.55 153.634C219.721 137.683 318.887 143.857 423.689 173.234C428.693 174.636 433.701 176.089 438.734 177.589C488.399 192.269 535.824 208.183 582.814 221.575C616.96 231.31 650.743 239.893 684.868 246.227C755.994 259.18 828.716 262.535 910.494 252.445C932.331 249.751 954.224 246.781 976.119 243.72C1076.06 229.707 1174.37 220.185 1273.02 245.852C1353.37 266.76 1425.9 307.187 1502.03 344.153C1555.73 370.231 1610.84 393.171 1666.44 414.663" stroke="url(#paint29_radial_595_1281)" stroke-miterlimit="10"/>
<path d="M-118.719 223.173C-39.3112 194.781 39.4818 167.036 119.191 153.435C219.074 136.395 318.185 141.048 423.034 170.27C428.027 171.664 433.035 173.106 438.047 174.608C487.669 189.252 534.912 205.373 581.695 219.145C615.726 229.171 649.37 238.118 683.388 244.832C754.223 258.575 826.727 262.742 908.581 252.605C930.377 249.905 952.212 246.849 974.061 243.723C1073.72 229.092 1171.94 218.193 1270.58 243.389C1351.85 264.154 1425 305.23 1501.88 342.68C1556.09 369.094 1611.76 392.267 1667.92 413.979" stroke="url(#paint30_radial_595_1281)" stroke-miterlimit="10"/>
<path d="M-118.222 224.815C-39.0837 195.985 39.4007 167.706 118.832 153.246C218.419 135.118 317.486 138.259 422.37 167.317C427.352 168.702 432.349 170.135 437.361 171.627C486.93 186.246 533.987 202.654 580.576 216.724C614.468 227.104 647.999 236.352 681.899 243.438C752.444 257.98 824.727 262.95 906.648 252.767C928.393 250.061 950.184 246.959 971.994 243.726C1071.39 228.676 1169.48 216.193 1268.12 240.927C1350.34 261.548 1424.09 303.272 1501.72 341.219C1556.44 367.959 1612.66 391.373 1669.4 413.296" stroke="url(#paint31_radial_595_1281)" stroke-miterlimit="10"/>
<path d="M-117.725 226.448C-38.8552 197.2 39.3189 168.366 118.474 153.047C217.762 133.831 316.784 135.45 421.715 164.354C426.687 165.729 431.683 167.162 436.684 168.645C486.21 183.228 533.095 199.842 579.466 214.293C613.243 224.955 646.646 234.575 680.43 242.043C750.683 257.373 822.758 263.155 904.734 252.927C926.44 250.224 948.176 247.068 969.937 243.738C1069.08 228.27 1167.04 214.201 1265.66 238.485C1348.82 258.952 1423.19 301.335 1501.56 339.767C1556.79 366.843 1613.57 390.489 1670.87 412.633" stroke="url(#paint32_radial_595_1281)" stroke-miterlimit="10"/>
<path d="M-117.228 228.09C-38.6277 198.405 39.2379 169.035 118.115 152.858C217.106 132.554 316.075 132.662 421.061 161.4C426.032 162.765 431.007 164.19 436.007 165.664C485.481 180.221 532.201 197.02 578.347 211.863C612.008 222.805 645.272 232.79 678.95 240.639C748.911 256.758 820.767 263.342 902.82 253.077C924.475 250.369 946.166 247.156 967.878 243.73C1066.76 227.843 1164.6 212.179 1263.21 236.012C1347.3 256.327 1422.29 299.377 1501.4 338.285C1557.14 365.698 1614.48 389.585 1672.36 411.929" stroke="url(#paint33_radial_595_1281)" stroke-miterlimit="10"/>
<path d="M-116.731 229.733C-38.4001 199.609 39.166 169.694 117.757 152.669C216.452 131.287 315.374 129.863 420.398 158.457C425.358 159.813 430.333 161.228 435.313 162.703C484.742 177.224 531.291 194.23 577.219 209.453C610.755 220.678 643.892 231.035 677.461 239.255C747.142 256.162 818.778 263.559 900.888 253.249C922.492 250.535 944.139 247.276 965.802 243.754C1064.43 227.448 1162.13 210.19 1260.75 233.57C1345.78 253.731 1421.36 297.441 1501.25 336.833C1557.49 364.582 1615.39 388.701 1673.83 411.255" stroke="url(#paint34_radial_595_1281)" stroke-miterlimit="10"/>
<path d="M-116.234 231.365C-38.1726 200.814 39.0508 170.206 117.398 152.47C215.749 129.814 314.673 127.054 419.743 155.494C424.692 156.841 429.656 158.247 434.636 159.722C484.013 174.217 530.398 191.418 576.109 207.022C609.529 218.528 642.529 229.259 675.982 237.861C745.371 255.557 816.788 263.766 898.974 253.409C920.538 250.689 942.14 247.383 963.744 243.756C1062.11 227.042 1159.69 208.178 1258.3 231.108C1344.28 251.104 1420.47 295.483 1501.09 335.361C1557.85 363.436 1616.3 387.797 1675.32 410.571" stroke="url(#paint35_radial_595_1281)" stroke-miterlimit="10"/>
<path d="M-115.737 233.008C-37.945 202.018 38.9716 170.896 117.04 152.281C215.095 128.567 313.973 124.265 419.079 152.541C424.016 153.869 428.98 155.275 433.949 156.741C483.283 171.2 529.496 188.607 574.991 204.601C608.295 216.389 641.156 227.483 674.503 236.466C743.601 254.951 814.809 263.972 897.051 253.57C918.564 250.844 940.122 247.492 961.676 243.759C1059.78 226.626 1157.24 206.157 1255.84 228.645C1342.76 248.468 1419.56 293.525 1500.93 333.899C1558.2 362.31 1617.2 386.903 1676.79 409.888" stroke="url(#paint36_radial_595_1281)" stroke-miterlimit="10"/>
<path d="M-115.24 234.65C-37.7166 203.233 38.8923 171.586 116.691 152.081C214.452 127.309 313.272 121.456 418.434 149.576C423.37 150.894 428.313 152.292 433.283 153.758C482.574 168.191 528.613 185.784 573.891 202.169C607.08 214.238 639.804 225.706 673.043 235.07C741.85 254.343 812.839 264.177 895.148 253.729C916.621 251.007 938.124 247.6 959.629 243.771C1057.48 226.218 1154.81 204.135 1253.41 226.191C1341.26 245.84 1418.67 291.576 1500.79 332.436C1558.58 361.183 1618.13 386.018 1678.29 409.203" stroke="url(#paint37_radial_595_1281)" stroke-miterlimit="10"/>
<path d="M-114.743 236.282C-37.489 204.437 38.8131 172.276 116.333 151.892C213.798 126.052 312.571 118.658 417.77 146.623C422.695 147.932 427.638 149.32 432.587 150.788C481.825 165.185 527.701 182.983 572.762 199.75C605.826 212.101 638.422 223.941 671.554 233.676C740.069 253.739 810.84 264.385 893.224 253.89C914.647 251.162 936.105 247.709 957.561 243.774C1055.15 225.803 1152.36 202.113 1250.94 223.73C1339.73 243.205 1417.76 289.629 1500.62 330.965C1558.92 360.038 1619.02 385.115 1679.75 408.52" stroke="url(#paint38_radial_595_1281)" stroke-miterlimit="10"/>
<path d="M-114.246 237.925C-37.2615 205.642 38.7438 172.965 115.974 151.693C213.145 124.805 311.87 115.859 417.115 143.66C422.03 144.96 426.961 146.339 431.909 147.796C481.105 162.167 526.808 180.161 571.652 197.308C604.6 209.941 637.069 222.154 670.083 232.261C738.307 253.112 808.869 264.57 891.308 254.02C912.69 251.286 934.094 247.777 955.502 243.756C1052.85 225.365 1149.92 200.062 1248.49 221.247C1338.23 240.538 1416.85 287.652 1500.48 329.472C1559.29 358.881 1619.94 384.19 1681.25 407.805" stroke="url(#paint39_radial_595_1281)" stroke-miterlimit="10"/>
<path d="M-113.749 239.557C-37.034 206.847 38.6636 173.644 115.616 151.504C212.502 123.557 311.171 113.07 416.461 140.706C421.375 141.996 426.295 143.366 431.234 144.824C480.376 159.16 525.906 177.36 570.543 194.887C603.375 207.801 635.706 220.378 668.605 230.876C736.547 252.516 806.88 264.787 889.396 254.19C910.727 251.45 932.096 247.894 953.455 243.767C1050.54 224.958 1147.49 198.029 1246.05 218.794C1336.73 237.9 1415.96 285.703 1500.34 328.019C1559.65 357.765 1620.87 383.305 1682.74 407.14" stroke="url(#paint40_radial_595_1281)" stroke-miterlimit="10"/>
<path d="M-113.252 241.2C63.9916 164.365 235.526 84.4043 430.547 141.843C590.399 188.424 710.658 278.289 887.472 254.351C1005.59 239.906 1123.54 190.559 1243.59 216.342C1335.36 234.519 1414.84 284.187 1500.17 326.558C1559.85 356.934 1621.77 382.422 1684.21 406.458" stroke="url(#paint41_radial_595_1281)" stroke-miterlimit="10"/>
<defs>
<radialGradient id="paint0_radial_595_1281" cx="0" cy="0" r="1" gradientUnits="userSpaceOnUse" gradientTransform="translate(744.736 301.045) rotate(-5.07942) scale(628.73 502.984)">
<stop offset="0.19" stop-color="#1CAADA" stop-opacity="0.9"/>
<stop offset="0.57" stop-color="#ED4562" stop-opacity="0.6"/>
<stop offset="0.78" stop-color="#9A3380" stop-opacity="0.6"/>
<stop offset="1" stop-opacity="0.4"/>
</radialGradient>
<radialGradient id="paint1_radial_595_1281" cx="0" cy="0" r="1" gradientUnits="userSpaceOnUse" gradientTransform="translate(745.71 301.276) rotate(-5.07942) scale(628.99 503.192)">
<stop offset="0.19" stop-color="#1CAADA" stop-opacity="0.9"/>
<stop offset="0.57" stop-color="#ED4562" stop-opacity="0.6"/>
<stop offset="0.78" stop-color="#9A3380" stop-opacity="0.6"/>
<stop offset="1" stop-opacity="0.4"/>
</radialGradient>
<radialGradient id="paint2_radial_595_1281" cx="0" cy="0" r="1" gradientUnits="userSpaceOnUse" gradientTransform="translate(746.663 301.376) rotate(-5.07942) scale(629.28 503.424)">
<stop offset="0.19" stop-color="#1CAADA" stop-opacity="0.9"/>
<stop offset="0.57" stop-color="#ED4562" stop-opacity="0.6"/>
<stop offset="0.78" stop-color="#9A3380" stop-opacity="0.6"/>
<stop offset="1" stop-opacity="0.4"/>
</radialGradient>
<radialGradient id="paint3_radial_595_1281" cx="0" cy="0" r="1" gradientUnits="userSpaceOnUse" gradientTransform="translate(747.613 301.45) rotate(-5.07942) scale(629.57 503.656)">
<stop offset="0.19" stop-color="#1CAADA" stop-opacity="0.9"/>
<stop offset="0.57" stop-color="#ED4562" stop-opacity="0.6"/>
<stop offset="0.78" stop-color="#9A3380" stop-opacity="0.6"/>
<stop offset="1" stop-opacity="0.4"/>
</radialGradient>
<radialGradient id="paint4_radial_595_1281" cx="0" cy="0" r="1" gradientUnits="userSpaceOnUse" gradientTransform="translate(748.561 301.491) rotate(-5.07942) scale(629.86 503.888)">
<stop offset="0.19" stop-color="#1CAADA" stop-opacity="0.9"/>
<stop offset="0.57" stop-color="#ED4562" stop-opacity="0.6"/>
<stop offset="0.78" stop-color="#9A3380" stop-opacity="0.6"/>
<stop offset="1" stop-opacity="0.4"/>
</radialGradient>
<radialGradient id="paint5_radial_595_1281" cx="0" cy="0" r="1" gradientUnits="userSpaceOnUse" gradientTransform="translate(749.508 301.533) rotate(-5.07942) scale(630.16 504.128)">
<stop offset="0.19" stop-color="#1CAADA" stop-opacity="0.9"/>
<stop offset="0.57" stop-color="#ED4562" stop-opacity="0.6"/>
<stop offset="0.78" stop-color="#9A3380" stop-opacity="0.6"/>
<stop offset="1" stop-opacity="0.4"/>
</radialGradient>
<radialGradient id="paint6_radial_595_1281" cx="0" cy="0" r="1" gradientUnits="userSpaceOnUse" gradientTransform="translate(750.452 301.541) rotate(-5.07942) scale(630.46 504.368)">
<stop offset="0.19" stop-color="#1CAADA" stop-opacity="0.9"/>
<stop offset="0.57" stop-color="#ED4562" stop-opacity="0.6"/>
<stop offset="0.78" stop-color="#9A3380" stop-opacity="0.6"/>
<stop offset="1" stop-opacity="0.4"/>
</radialGradient>
<radialGradient id="paint7_radial_595_1281" cx="0" cy="0" r="1" gradientUnits="userSpaceOnUse" gradientTransform="translate(751.395 301.524) rotate(-5.07942) scale(630.77 504.616)">
<stop offset="0.19" stop-color="#1CAADA" stop-opacity="0.9"/>
<stop offset="0.57" stop-color="#ED4562" stop-opacity="0.6"/>
<stop offset="0.78" stop-color="#9A3380" stop-opacity="0.6"/>
<stop offset="1" stop-opacity="0.4"/>
</radialGradient>
<radialGradient id="paint8_radial_595_1281" cx="0" cy="0" r="1" gradientUnits="userSpaceOnUse" gradientTransform="translate(752.335 301.49) rotate(-5.07942) scale(631.08 504.864)">
<stop offset="0.19" stop-color="#1CAADA" stop-opacity="0.9"/>
<stop offset="0.57" stop-color="#ED4562" stop-opacity="0.6"/>
<stop offset="0.78" stop-color="#9A3380" stop-opacity="0.6"/>
<stop offset="1" stop-opacity="0.4"/>
</radialGradient>
<radialGradient id="paint9_radial_595_1281" cx="0" cy="0" r="1" gradientUnits="userSpaceOnUse" gradientTransform="translate(753.283 301.422) rotate(-5.07942) scale(631.4 505.12)">
<stop offset="0.19" stop-color="#1CAADA" stop-opacity="0.9"/>
<stop offset="0.57" stop-color="#ED4562" stop-opacity="0.6"/>
<stop offset="0.78" stop-color="#9A3380" stop-opacity="0.6"/>
<stop offset="1" stop-opacity="0.4"/>
</radialGradient>
<radialGradient id="paint10_radial_595_1281" cx="0" cy="0" r="1" gradientUnits="userSpaceOnUse" gradientTransform="translate(754.219 301.339) rotate(-5.07942) scale(631.72 505.376)">
<stop offset="0.19" stop-color="#1CAADA" stop-opacity="0.9"/>
<stop offset="0.57" stop-color="#ED4562" stop-opacity="0.6"/>
<stop offset="0.78" stop-color="#9A3380" stop-opacity="0.6"/>
<stop offset="1" stop-opacity="0.4"/>
</radialGradient>
<radialGradient id="paint11_radial_595_1281" cx="0" cy="0" r="1" gradientUnits="userSpaceOnUse" gradientTransform="translate(755.154 301.232) rotate(-5.07942) scale(632.04 505.632)">
<stop offset="0.19" stop-color="#1CAADA" stop-opacity="0.9"/>
<stop offset="0.57" stop-color="#ED4562" stop-opacity="0.6"/>
<stop offset="0.78" stop-color="#9A3380" stop-opacity="0.6"/>
<stop offset="1" stop-opacity="0.4"/>
</radialGradient>
<radialGradient id="paint12_radial_595_1281" cx="0" cy="0" r="1" gradientUnits="userSpaceOnUse" gradientTransform="translate(756.085 301.099) rotate(-5.07942) scale(632.37 505.896)">
<stop offset="0.19" stop-color="#1CAADA" stop-opacity="0.9"/>
<stop offset="0.57" stop-color="#ED4562" stop-opacity="0.6"/>
<stop offset="0.78" stop-color="#9A3380" stop-opacity="0.6"/>
<stop offset="1" stop-opacity="0.4"/>
</radialGradient>
<radialGradient id="paint13_radial_595_1281" cx="0" cy="0" r="1" gradientUnits="userSpaceOnUse" gradientTransform="translate(757.015 300.94) rotate(-5.07942) scale(632.7 506.16)">
<stop offset="0.19" stop-color="#1CAADA" stop-opacity="0.9"/>
<stop offset="0.57" stop-color="#ED4562" stop-opacity="0.6"/>
<stop offset="0.78" stop-color="#9A3380" stop-opacity="0.6"/>
<stop offset="1" stop-opacity="0.4"/>
</radialGradient>
<radialGradient id="paint14_radial_595_1281" cx="0" cy="0" r="1" gradientUnits="userSpaceOnUse" gradientTransform="translate(757.942 300.749) rotate(-5.07942) scale(633.04 506.432)">
<stop offset="0.19" stop-color="#1CAADA" stop-opacity="0.9"/>
<stop offset="0.57" stop-color="#ED4562" stop-opacity="0.6"/>
<stop offset="0.78" stop-color="#9A3380" stop-opacity="0.6"/>
<stop offset="1" stop-opacity="0.4"/>
</radialGradient>
<radialGradient id="paint15_radial_595_1281" cx="0" cy="0" r="1" gradientUnits="userSpaceOnUse" gradientTransform="translate(758.867 300.542) rotate(-5.07942) scale(633.38 506.704)">
<stop offset="0.19" stop-color="#1CAADA" stop-opacity="0.9"/>
<stop offset="0.57" stop-color="#ED4562" stop-opacity="0.6"/>
<stop offset="0.78" stop-color="#9A3380" stop-opacity="0.6"/>
<stop offset="1" stop-opacity="0.4"/>
</radialGradient>
<radialGradient id="paint16_radial_595_1281" cx="0" cy="0" r="1" gradientUnits="userSpaceOnUse" gradientTransform="translate(759.789 300.292) rotate(-5.07942) scale(633.73 506.984)">
<stop offset="0.19" stop-color="#1CAADA" stop-opacity="0.9"/>
<stop offset="0.57" stop-color="#ED4562" stop-opacity="0.6"/>
<stop offset="0.78" stop-color="#9A3380" stop-opacity="0.6"/>
<stop offset="1" stop-opacity="0.4"/>
</radialGradient>
<radialGradient id="paint17_radial_595_1281" cx="0" cy="0" r="1" gradientUnits="userSpaceOnUse" gradientTransform="translate(760.719 300.026) rotate(-5.07942) scale(634.08 507.264)">
<stop offset="0.19" stop-color="#1CAADA" stop-opacity="0.9"/>
<stop offset="0.57" stop-color="#ED4562" stop-opacity="0.6"/>
<stop offset="0.78" stop-color="#9A3380" stop-opacity="0.6"/>
<stop offset="1" stop-opacity="0.4"/>
</radialGradient>
<radialGradient id="paint18_radial_595_1281" cx="0" cy="0" r="1" gradientUnits="userSpaceOnUse" gradientTransform="translate(761.635 299.718) rotate(-5.07942) scale(634.44 507.552)">
<stop offset="0.19" stop-color="#1CAADA" stop-opacity="0.9"/>
<stop offset="0.57" stop-color="#ED4562" stop-opacity="0.6"/>
<stop offset="0.78" stop-color="#9A3380" stop-opacity="0.6"/>
<stop offset="1" stop-opacity="0.4"/>
</radialGradient>
<radialGradient id="paint19_radial_595_1281" cx="0" cy="0" r="1" gradientUnits="userSpaceOnUse" gradientTransform="translate(762.549 299.386) rotate(-5.07942) scale(634.8 507.84)">
<stop offset="0.19" stop-color="#1CAADA" stop-opacity="0.9"/>
<stop offset="0.57" stop-color="#ED4562" stop-opacity="0.6"/>
<stop offset="0.78" stop-color="#9A3380" stop-opacity="0.6"/>
<stop offset="1" stop-opacity="0.4"/>
</radialGradient>
<radialGradient id="paint20_radial_595_1281" cx="0" cy="0" r="1" gradientUnits="userSpaceOnUse" gradientTransform="translate(763.461 299.03) rotate(-5.07942) scale(635.17 508.136)">
<stop offset="0.19" stop-color="#1CAADA" stop-opacity="0.9"/>
<stop offset="0.57" stop-color="#ED4562" stop-opacity="0.6"/>
<stop offset="0.78" stop-color="#9A3380" stop-opacity="0.6"/>
<stop offset="1" stop-opacity="0.4"/>
</radialGradient>
<radialGradient id="paint21_radial_595_1281" cx="0" cy="0" r="1" gradientUnits="userSpaceOnUse" gradientTransform="translate(764.369 298.63) rotate(-5.07942) scale(635.54 508.432)">
<stop offset="0.19" stop-color="#1CAADA" stop-opacity="0.9"/>
<stop offset="0.57" stop-color="#ED4562" stop-opacity="0.6"/>
<stop offset="0.78" stop-color="#9A3380" stop-opacity="0.6"/>
<stop offset="1" stop-opacity="0.4"/>
</radialGradient>
<radialGradient id="paint22_radial_595_1281" cx="0" cy="0" r="1" gradientUnits="userSpaceOnUse" gradientTransform="translate(765.275 298.198) rotate(-5.07942) scale(635.92 508.736)">
<stop offset="0.19" stop-color="#1CAADA" stop-opacity="0.9"/>
<stop offset="0.57" stop-color="#ED4562" stop-opacity="0.6"/>
<stop offset="0.78" stop-color="#9A3380" stop-opacity="0.6"/>
<stop offset="1" stop-opacity="0.4"/>
</radialGradient>
<radialGradient id="paint23_radial_595_1281" cx="0" cy="0" r="1" gradientUnits="userSpaceOnUse" gradientTransform="translate(766.175 297.708) rotate(-5.07942) scale(636.31 509.048)">
<stop offset="0.19" stop-color="#1CAADA" stop-opacity="0.9"/>
<stop offset="0.57" stop-color="#ED4562" stop-opacity="0.6"/>
<stop offset="0.78" stop-color="#9A3380" stop-opacity="0.6"/>
<stop offset="1" stop-opacity="0.4"/>
</radialGradient>
<radialGradient id="paint24_radial_595_1281" cx="0" cy="0" r="1" gradientUnits="userSpaceOnUse" gradientTransform="translate(767.076 297.226) rotate(-5.07942) scale(636.69 509.352)">
<stop offset="0.19" stop-color="#1CAADA" stop-opacity="0.9"/>
<stop offset="0.57" stop-color="#ED4562" stop-opacity="0.6"/>
<stop offset="0.78" stop-color="#9A3380" stop-opacity="0.6"/>
<stop offset="1" stop-opacity="0.4"/>
</radialGradient>
<radialGradient id="paint25_radial_595_1281" cx="0" cy="0" r="1" gradientUnits="userSpaceOnUse" gradientTransform="translate(767.981 296.686) rotate(-5.07942) scale(637.09 509.672)">
<stop offset="0.19" stop-color="#1CAADA" stop-opacity="0.9"/>
<stop offset="0.57" stop-color="#ED4562" stop-opacity="0.6"/>
<stop offset="0.78" stop-color="#9A3380" stop-opacity="0.6"/>
<stop offset="1" stop-opacity="0.4"/>
</radialGradient>
<radialGradient id="paint26_radial_595_1281" cx="0" cy="0" r="1" gradientUnits="userSpaceOnUse" gradientTransform="translate(768.874 296.105) rotate(-5.07942) scale(637.49 509.992)">
<stop offset="0.19" stop-color="#1CAADA" stop-opacity="0.9"/>
<stop offset="0.57" stop-color="#ED4562" stop-opacity="0.6"/>
<stop offset="0.78" stop-color="#9A3380" stop-opacity="0.6"/>
<stop offset="1" stop-opacity="0.4"/>
</radialGradient>
<radialGradient id="paint27_radial_595_1281" cx="0" cy="0" r="1" gradientUnits="userSpaceOnUse" gradientTransform="translate(769.761 295.474) rotate(-5.07942) scale(637.9 510.32)">
<stop offset="0.19" stop-color="#1CAADA" stop-opacity="0.9"/>
<stop offset="0.57" stop-color="#ED4562" stop-opacity="0.6"/>
<stop offset="0.78" stop-color="#9A3380" stop-opacity="0.6"/>
<stop offset="1" stop-opacity="0.4"/>
</radialGradient>
<radialGradient id="paint28_radial_595_1281" cx="0" cy="0" r="1" gradientUnits="userSpaceOnUse" gradientTransform="translate(770.645 294.801) rotate(-5.07942) scale(638.32 510.656)">
<stop offset="0.19" stop-color="#1CAADA" stop-opacity="0.9"/>
<stop offset="0.57" stop-color="#ED4562" stop-opacity="0.6"/>
<stop offset="0.78" stop-color="#9A3380" stop-opacity="0.6"/>
<stop offset="1" stop-opacity="0.4"/>
</radialGradient>
<radialGradient id="paint29_radial_595_1281" cx="0" cy="0" r="1" gradientUnits="userSpaceOnUse" gradientTransform="translate(771.524 294.078) rotate(-5.07942) scale(638.74 510.992)">
<stop offset="0.19" stop-color="#1CAADA" stop-opacity="0.9"/>
<stop offset="0.57" stop-color="#ED4562" stop-opacity="0.6"/>
<stop offset="0.78" stop-color="#9A3380" stop-opacity="0.6"/>
<stop offset="1" stop-opacity="0.4"/>
</radialGradient>
<radialGradient id="paint30_radial_595_1281" cx="0" cy="0" r="1" gradientUnits="userSpaceOnUse" gradientTransform="translate(772.4 293.316) rotate(-5.07942) scale(639.17 511.336)">
<stop offset="0.19" stop-color="#1CAADA" stop-opacity="0.9"/>
<stop offset="0.57" stop-color="#ED4562" stop-opacity="0.6"/>
<stop offset="0.78" stop-color="#9A3380" stop-opacity="0.6"/>
<stop offset="1" stop-opacity="0.4"/>
</radialGradient>
<radialGradient id="paint31_radial_595_1281" cx="0" cy="0" r="1" gradientUnits="userSpaceOnUse" gradientTransform="translate(773.272 292.501) rotate(-5.07942) scale(639.61 511.688)">
<stop offset="0.19" stop-color="#1CAADA" stop-opacity="0.9"/>
<stop offset="0.57" stop-color="#ED4562" stop-opacity="0.6"/>
<stop offset="0.78" stop-color="#9A3380" stop-opacity="0.6"/>
<stop offset="1" stop-opacity="0.4"/>
</radialGradient>
<radialGradient id="paint32_radial_595_1281" cx="0" cy="0" r="1" gradientUnits="userSpaceOnUse" gradientTransform="translate(774.138 291.629) rotate(-5.07942) scale(640.06 512.048)">
<stop offset="0.19" stop-color="#1CAADA" stop-opacity="0.9"/>
<stop offset="0.57" stop-color="#ED4562" stop-opacity="0.6"/>
<stop offset="0.78" stop-color="#9A3380" stop-opacity="0.6"/>
<stop offset="1" stop-opacity="0.4"/>
</radialGradient>
<radialGradient id="paint33_radial_595_1281" cx="0" cy="0" r="1" gradientUnits="userSpaceOnUse" gradientTransform="translate(775.011 290.724) rotate(-5.07942) scale(640.51 512.408)">
<stop offset="0.19" stop-color="#1CAADA" stop-opacity="0.9"/>
<stop offset="0.57" stop-color="#ED4562" stop-opacity="0.6"/>
<stop offset="0.78" stop-color="#9A3380" stop-opacity="0.6"/>
<stop offset="1" stop-opacity="0.4"/>
</radialGradient>
<radialGradient id="paint34_radial_595_1281" cx="0" cy="0" r="1" gradientUnits="userSpaceOnUse" gradientTransform="translate(775.869 289.753) rotate(-5.07942) scale(640.97 512.776)">
<stop offset="0.19" stop-color="#1CAADA" stop-opacity="0.9"/>
<stop offset="0.57" stop-color="#ED4562" stop-opacity="0.6"/>
<stop offset="0.78" stop-color="#9A3380" stop-opacity="0.6"/>
<stop offset="1" stop-opacity="0.4"/>
</radialGradient>
<radialGradient id="paint35_radial_595_1281" cx="0" cy="0" r="1" gradientUnits="userSpaceOnUse" gradientTransform="translate(776.719 288.697) rotate(-5.07942) scale(641.45 513.16)">
<stop offset="0.19" stop-color="#1CAADA" stop-opacity="0.9"/>
<stop offset="0.57" stop-color="#ED4562" stop-opacity="0.6"/>
<stop offset="0.78" stop-color="#9A3380" stop-opacity="0.6"/>
<stop offset="1" stop-opacity="0.4"/>
</radialGradient>
<radialGradient id="paint36_radial_595_1281" cx="0" cy="0" r="1" gradientUnits="userSpaceOnUse" gradientTransform="translate(777.57 287.66) rotate(-5.07942) scale(641.92 513.536)">
<stop offset="0.19" stop-color="#1CAADA" stop-opacity="0.9"/>
<stop offset="0.57" stop-color="#ED4562" stop-opacity="0.6"/>
<stop offset="0.78" stop-color="#9A3380" stop-opacity="0.6"/>
<stop offset="1" stop-opacity="0.4"/>
</radialGradient>
<radialGradient id="paint37_radial_595_1281" cx="0" cy="0" r="1" gradientUnits="userSpaceOnUse" gradientTransform="translate(778.417 286.572) rotate(-5.07942) scale(642.41 513.928)">
<stop offset="0.19" stop-color="#1CAADA" stop-opacity="0.9"/>
<stop offset="0.57" stop-color="#ED4562" stop-opacity="0.6"/>
<stop offset="0.78" stop-color="#9A3380" stop-opacity="0.6"/>
<stop offset="1" stop-opacity="0.4"/>
</radialGradient>
<radialGradient id="paint38_radial_595_1281" cx="0" cy="0" r="1" gradientUnits="userSpaceOnUse" gradientTransform="translate(779.26 285.435) rotate(-5.07942) scale(642.9 514.32)">
<stop offset="0.19" stop-color="#1CAADA" stop-opacity="0.9"/>
<stop offset="0.57" stop-color="#ED4562" stop-opacity="0.6"/>
<stop offset="0.78" stop-color="#9A3380" stop-opacity="0.6"/>
<stop offset="1" stop-opacity="0.4"/>
</radialGradient>
<radialGradient id="paint39_radial_595_1281" cx="0" cy="0" r="1" gradientUnits="userSpaceOnUse" gradientTransform="translate(780.099 284.265) rotate(-5.07942) scale(643.39 514.712)">
<stop offset="0.19" stop-color="#1CAADA" stop-opacity="0.9"/>
<stop offset="0.57" stop-color="#ED4562" stop-opacity="0.6"/>
<stop offset="0.78" stop-color="#9A3380" stop-opacity="0.6"/>
<stop offset="1" stop-opacity="0.4"/>
</radialGradient>
<radialGradient id="paint40_radial_595_1281" cx="0" cy="0" r="1" gradientUnits="userSpaceOnUse" gradientTransform="translate(780.935 283.052) rotate(-5.07942) scale(643.89 515.112)">
<stop offset="0.19" stop-color="#1CAADA" stop-opacity="0.9"/>
<stop offset="0.57" stop-color="#ED4562" stop-opacity="0.6"/>
<stop offset="0.78" stop-color="#9A3380" stop-opacity="0.6"/>
<stop offset="1" stop-opacity="0.4"/>
</radialGradient>
<radialGradient id="paint41_radial_595_1281" cx="0" cy="0" r="1" gradientUnits="userSpaceOnUse" gradientTransform="translate(781.778 281.806) rotate(-5.07942) scale(644.4 515.52)">
<stop offset="0.19" stop-color="#1CAADA" stop-opacity="0.9"/>
<stop offset="0.57" stop-color="#ED4562" stop-opacity="0.6"/>
<stop offset="0.78" stop-color="#9A3380" stop-opacity="0.6"/>
<stop offset="1" stop-opacity="0.4"/>
</radialGradient>
</defs>
</svg>
