<svg width="1512" height="879" viewBox="0 0 1512 879" fill="none" xmlns="http://www.w3.org/2000/svg">
<path d="M-209.895 638.924C-48.9239 564.509 128.088 523.553 306.087 535.741C387.631 540.273 468.207 555.585 548.886 567.438C668.521 586.876 792.988 585.873 905.298 536.315C1000.8 496.463 1086.62 435.991 1176.35 384.907C1331.31 294.298 1502.22 236.913 1672.51 181.483" stroke="url(#paint0_radial_595_1232)" stroke-miterlimit="10"/>
<path d="M-208.341 643.09C-46.8854 569.121 130.112 528.724 308.064 537.742C361.111 540.431 413.777 546.895 466.302 554.284C494.446 558.249 522.588 562.173 550.679 566.102C670.267 582.842 793.829 580.214 906.87 532.125C943.989 516.334 980.018 498.326 1015.25 478.726C1070.54 447.963 1124.4 414.503 1179.33 383.84C1219.12 361.631 1259.66 341.061 1301.07 322.22C1403.52 275.651 1510.46 238.027 1617.48 201.836C1637.21 195.177 1656.95 188.569 1676.67 181.995" stroke="url(#paint1_radial_595_1232)" stroke-miterlimit="10"/>
<path d="M-206.794 647.269C-44.8564 573.736 132.219 532.749 310.029 539.737C363.055 541.825 415.681 547.557 468.155 554.176C496.278 557.739 524.38 561.236 552.444 564.744C671.838 579.69 795.132 575.669 908.414 527.913C945.648 512.221 981.84 494.467 1017.26 475.256C1072.85 445.09 1127.03 412.579 1182.27 382.763C1222.27 361.181 1263.01 341.188 1304.61 322.77C1407.53 277.299 1514.79 239.702 1621.7 202.76C1641.41 195.971 1661.11 189.226 1680.81 182.503" stroke="url(#paint2_radial_595_1232)" stroke-miterlimit="10"/>
<path d="M-205.25 651.438C-42.8274 578.351 134.313 536.767 312.006 541.739C365 543.218 417.601 548.236 470.032 554.082C498.134 557.243 526.207 560.309 554.247 563.405C673.45 576.567 796.473 571.143 909.995 523.72C947.352 508.117 983.706 490.615 1019.31 471.797C1075.21 442.228 1129.71 410.652 1185.26 381.693C1225.47 360.735 1266.4 341.312 1308.18 323.331C1411.57 278.95 1519.15 241.379 1625.94 203.685C1645.64 196.766 1665.32 189.872 1684.99 183.012" stroke="url(#paint3_radial_595_1232)" stroke-miterlimit="10"/>
<path d="M-203.703 655.617C-40.7859 582.972 136.419 540.792 313.98 543.73C366.953 544.609 419.508 548.907 471.897 553.981C499.975 556.73 528.021 559.375 556.037 562.06C675.059 573.434 797.801 566.61 911.555 519.524C949.023 504.011 985.543 486.772 1021.34 468.334C1077.54 439.371 1132.37 408.732 1188.22 380.623C1228.63 360.282 1269.76 341.445 1311.73 323.888C1415.59 280.604 1523.49 243.061 1630.17 204.618C1649.84 197.569 1669.5 190.535 1689.14 183.527" stroke="url(#paint4_radial_595_1232)" stroke-miterlimit="10"/>
<path d="M-202.159 659.786C-38.76 587.578 138.516 544.82 315.954 545.722C368.904 545.99 421.422 549.566 473.762 553.88C501.81 556.231 529.829 558.454 557.815 560.708C676.643 570.288 799.127 562.068 913.114 515.328C950.697 499.915 987.39 482.926 1023.38 464.88C1079.88 436.515 1135.03 406.812 1191.18 379.559C1231.8 359.845 1273.14 341.584 1315.27 324.445C1419.61 282.252 1527.82 244.733 1634.4 205.549C1654.05 198.37 1673.67 191.199 1693.29 184.041" stroke="url(#paint5_radial_595_1232)" stroke-miterlimit="10"/>
<path d="M-200.612 663.965C-36.7184 592.199 140.613 548.848 317.931 547.724C370.851 547.393 423.332 550.248 475.626 553.779C503.654 555.728 531.643 557.52 559.605 559.363C678.235 567.171 800.458 557.545 914.683 511.129C952.378 495.807 989.234 479.071 1025.41 461.414C1082.22 433.646 1137.69 404.891 1194.15 378.486C1234.98 359.396 1276.51 341.705 1318.83 324.999C1423.64 283.903 1532.17 246.412 1638.62 206.47C1658.26 199.16 1677.86 191.841 1697.44 184.547" stroke="url(#paint6_radial_595_1232)" stroke-miterlimit="10"/>
<path d="M-199.068 668.134C-34.6925 596.804 142.707 552.866 319.895 549.718C372.792 548.776 425.239 550.919 477.491 553.678C505.495 555.215 533.447 556.589 561.393 558.008C679.832 564.032 801.784 553.002 916.239 506.923C954.05 491.701 991.068 475.218 1027.44 457.942C1084.55 430.78 1140.34 402.952 1197.11 377.403C1238.15 358.94 1279.89 341.822 1322.38 325.544C1427.66 285.538 1536.52 248.082 1642.86 207.388C1662.48 199.958 1682.04 192.492 1701.6 185.039" stroke="url(#paint7_radial_595_1232)" stroke-miterlimit="10"/>
<path d="M-197.521 672.313C-32.6605 601.429 144.814 556.891 321.872 551.72C374.74 550.18 427.156 551.588 479.359 553.587C507.342 554.722 535.267 555.675 563.176 556.675C681.424 560.915 803.105 548.482 917.801 502.736C955.734 487.602 992.915 471.372 1029.47 454.488C1086.88 427.924 1143 401.031 1200.08 376.349C1241.34 358.51 1283.26 341.962 1325.94 326.12C1431.7 287.211 1540.86 249.774 1647.09 208.328C1666.69 200.768 1686.23 193.153 1705.75 185.564" stroke="url(#paint8_radial_595_1232)" stroke-miterlimit="10"/>
<path d="M-195.978 676.483C-30.622 606.041 146.905 560.9 323.846 553.712C376.69 551.561 429.063 552.26 481.224 553.486C509.185 554.219 537.072 554.744 564.966 555.33C683.024 557.786 804.437 543.959 919.37 498.537C957.418 483.503 994.762 467.526 1031.52 451.032C1089.23 425.074 1145.67 399.118 1203.05 375.285C1244.51 358.064 1286.64 342.101 1329.5 326.683C1435.72 288.865 1545.12 251.249 1651.33 209.268C1670.88 201.543 1690.41 193.827 1709.91 186.088" stroke="url(#paint9_radial_595_1232)" stroke-miterlimit="10"/>
<path d="M-194.431 680.661C-28.593 610.656 149.002 564.928 325.814 555.716C378.638 552.964 430.974 552.941 483.079 553.388C511.007 553.712 538.879 553.823 566.744 553.978C684.613 554.659 805.753 539.42 920.929 494.341C959.089 479.398 996.606 463.671 1033.54 447.569C1091.55 422.211 1148.32 397.188 1206.01 374.212C1247.68 357.618 1290.01 342.231 1333.05 327.241C1439.75 290.519 1549.45 252.903 1655.56 210.199C1675.09 202.334 1694.59 194.478 1714.06 186.603" stroke="url(#paint10_radial_595_1232)" stroke-miterlimit="10"/>
<path d="M-192.887 684.831C-26.564 615.27 151.096 568.946 327.785 557.698C380.576 554.338 432.884 553.59 484.951 553.275C512.858 553.197 540.69 552.88 568.531 552.623C686.21 551.52 807.091 534.884 922.486 490.135C960.761 475.292 998.44 459.818 1035.57 444.096C1093.88 419.336 1150.97 395.248 1208.97 373.132C1250.85 357.162 1293.34 342.259 1336.59 327.788C1443.69 291.938 1553.77 254.549 1659.78 211.11C1679.29 203.115 1698.78 195.12 1718.22 187.095" stroke="url(#paint11_radial_595_1232)" stroke-miterlimit="10"/>
<path d="M-191.34 689.009C-24.5255 619.882 153.193 572.974 329.762 559.7C382.533 555.738 434.794 554.272 486.818 553.184C514.705 552.703 542.51 551.966 570.325 551.288C687.806 548.413 808.422 530.361 924.058 485.946C962.448 471.203 1000.3 455.969 1037.62 440.649C1096.23 416.496 1153.64 393.335 1211.95 372.075C1254.03 356.722 1296.72 342.396 1340.16 328.349C1447.74 293.576 1558.12 256.207 1664.02 212.047C1683.52 203.922 1702.96 195.781 1722.38 187.616" stroke="url(#paint12_radial_595_1232)" stroke-miterlimit="10"/>
<path d="M-189.796 693.179C-22.4966 624.497 155.284 576.983 331.726 561.695C384.464 557.125 436.702 554.943 488.674 553.086C516.536 552.194 544.305 551.038 572.102 549.936C689.395 545.286 809.741 525.832 925.614 481.74C964.126 467.085 1002.13 452.117 1039.64 437.177C1098.56 413.62 1156.29 391.408 1214.9 370.995C1257.2 356.266 1300.01 342.299 1343.7 328.899C1451.89 295.714 1562.44 257.854 1668.24 212.962C1687.71 204.697 1707.14 196.425 1726.52 188.115" stroke="url(#paint13_radial_595_1232)" stroke-miterlimit="10"/>
<path d="M-188.249 697.357C-20.4676 629.112 157.381 581.011 333.703 563.696C386.418 558.515 438.608 555.511 490.548 552.982C518.381 551.628 546.132 550.111 573.892 548.591C690.997 542.166 811.069 521.299 927.173 477.544C965.8 462.989 1003.98 448.271 1041.68 433.711C1100.9 410.761 1158.95 389.475 1217.87 369.919C1260.38 355.817 1303.47 342.614 1347.26 329.45C1455.77 296.827 1566.78 259.504 1672.49 213.886C1691.94 205.491 1711.33 197.074 1730.69 188.614" stroke="url(#paint14_radial_595_1232)" stroke-miterlimit="10"/>
<path d="M-186.705 701.527C-18.4291 633.724 159.475 585.029 335.677 565.688C388.362 559.909 440.521 556.17 492.413 552.881C520.225 551.125 547.939 549.19 575.683 547.245C692.6 539.046 812.401 516.776 928.745 473.354C967.484 458.89 1005.82 444.425 1043.72 430.254C1103.25 407.902 1161.8 388.073 1220.84 368.855C1263.45 354.995 1306.84 342.744 1350.81 330.017C1459.79 298.462 1571.12 261.167 1676.71 214.82C1696.14 206.295 1715.51 197.738 1734.83 189.132" stroke="url(#paint15_radial_595_1232)" stroke-miterlimit="10"/>
<path d="M-185.158 705.706C-16.4001 638.339 161.569 589.047 337.645 567.692C390.306 561.303 442.419 556.845 494.271 552.793C522.059 550.625 549.747 548.269 577.463 545.903C694.195 535.939 813.723 512.256 930.304 469.158C969.158 454.794 1007.67 440.579 1045.76 426.801C1105.58 405.045 1164.28 385.631 1223.81 367.792C1266.74 354.931 1310.21 342.874 1354.37 330.581C1463.83 300.104 1575.45 262.83 1680.95 215.757C1700.36 207.093 1719.7 198.399 1739 189.653" stroke="url(#paint16_radial_595_1232)" stroke-miterlimit="10"/>
<path d="M-183.614 709.875C-14.3711 642.954 163.663 593.066 339.619 569.684C392.248 562.686 444.333 557.504 496.136 552.692C523.9 550.112 551.555 547.347 579.244 544.561C695.779 532.825 815.042 507.726 931.864 464.962C970.833 450.698 1009.51 436.726 1047.78 423.338C1107.91 402.189 1166.94 383.701 1226.77 366.731C1269.91 354.485 1313.57 343.007 1357.92 331.147C1467.85 301.749 1579.79 264.503 1685.17 216.7C1704.56 207.906 1723.88 199.072 1743.15 190.178" stroke="url(#paint17_radial_595_1232)" stroke-miterlimit="10"/>
<path d="M-182.067 714.054C-12.3326 647.566 165.747 597.087 341.596 571.685C394.204 564.087 446.246 558.163 498.013 552.598C525.744 549.61 553.384 546.43 581.047 543.222C697.396 529.721 816.385 503.21 933.435 460.772C972.517 446.599 1011.36 432.89 1049.83 419.882C1110.26 399.33 1169.6 381.778 1229.75 365.664C1273.09 354.045 1316.96 343.131 1361.48 331.711C1471.88 303.381 1584.12 266.166 1689.41 217.627C1708.78 208.703 1728.07 199.72 1747.31 190.689" stroke="url(#paint18_radial_595_1232)" stroke-miterlimit="10"/>
<path d="M-180.513 718.22C-10.2941 652.177 167.851 601.102 343.57 573.677C396.145 565.47 448.151 558.825 499.875 552.487C527.585 549.097 555.189 545.499 582.831 541.858C698.993 526.582 817.72 498.665 934.998 456.554C974.204 442.478 1013.2 429.012 1051.86 416.396C1112.59 396.442 1172.27 379.835 1232.71 364.569C1276.28 353.573 1320.34 343.229 1365.04 332.233C1475.91 304.981 1588.45 267.788 1693.65 218.523C1712.99 209.462 1732.26 200.35 1751.48 191.169" stroke="url(#paint19_radial_595_1232)" stroke-miterlimit="10"/>
<path d="M-178.966 722.399C-8.26511 656.792 169.945 605.12 345.544 575.669C398.096 566.851 450.064 559.484 501.74 552.386C529.426 548.584 557.003 544.565 584.612 540.515C700.588 523.474 819.042 494.145 936.557 452.358C975.879 438.382 1015.04 425.169 1053.89 412.943C1114.93 393.595 1174.92 377.915 1235.67 363.508C1279.45 353.127 1323.7 343.362 1368.58 332.803C1479.92 306.629 1592.77 269.454 1697.86 219.46C1717.18 210.269 1736.43 201.007 1755.61 191.69" stroke="url(#paint20_radial_595_1232)" stroke-miterlimit="10"/>
<path d="M-177.423 726.568C-6.23618 661.407 172.026 609.132 347.518 577.661C400.04 568.245 451.969 560.146 503.605 552.286C531.267 548.072 558.81 543.644 586.399 539.161C702.191 520.354 820.368 489.603 938.117 448.162C977.55 434.277 1016.88 421.313 1055.92 409.48C1117.26 390.729 1177.58 375.985 1238.64 362.435C1282.62 352.681 1327.08 343.47 1372.14 333.357C1483.95 308.251 1597.11 271.117 1702.1 220.387C1721.4 211.066 1740.61 201.668 1759.77 192.192" stroke="url(#paint21_radial_595_1232)" stroke-miterlimit="10"/>
<path d="M-175.876 730.747C-4.19764 666.019 174.123 613.16 349.485 579.665C401.985 569.638 453.876 560.818 505.472 552.194C533.111 547.569 560.63 542.73 588.192 537.825C703.799 517.253 821.702 485.089 939.689 443.972C979.237 430.187 1018.73 417.477 1057.96 406.023C1119.6 387.882 1180.26 374.059 1241.6 361.371C1285.8 352.232 1330.45 343.6 1375.7 333.921C1487.99 309.893 1601.44 272.78 1706.35 221.324C1725.62 211.864 1744.81 202.326 1763.93 192.714" stroke="url(#paint22_radial_595_1232)" stroke-miterlimit="10"/>
<path d="M-174.332 734.916C-2.16866 670.634 176.205 617.172 351.459 581.657C403.926 571.022 455.78 561.48 507.334 552.084C534.942 547.06 562.435 541.799 589.97 536.473C705.392 514.136 823.021 480.559 941.245 439.766C980.909 426.082 1020.58 413.621 1059.99 402.56C1121.93 385.016 1182.91 372.129 1244.57 360.298C1288.97 351.785 1333.82 343.721 1379.25 334.478C1492.01 311.528 1605.77 274.434 1710.56 222.248C1729.82 212.658 1748.99 202.98 1768.08 193.219" stroke="url(#paint23_radial_595_1232)" stroke-miterlimit="10"/>
<path d="M-172.785 739.095C-0.136744 675.258 178.299 621.19 353.436 583.658C405.873 572.425 457.697 562.149 509.202 551.992C536.786 546.557 564.255 540.885 591.76 535.128C707 511.035 824.352 476.036 942.814 435.567C982.593 421.983 1022.42 409.766 1062.03 399.094C1124.27 382.147 1185.58 370.196 1247.53 359.225C1292.15 351.326 1337.2 343.838 1382.81 335.032C1496.04 313.16 1610.1 276.087 1714.8 223.176C1734.04 213.455 1753.17 203.641 1772.25 193.73" stroke="url(#paint24_radial_595_1232)" stroke-miterlimit="10"/>
<path d="M-171.241 743.264C1.89881 679.861 180.38 625.202 355.401 585.653C407.814 573.809 459.591 562.814 511.067 551.892C538.627 546.044 566.063 539.964 593.55 533.783C708.605 507.925 825.684 471.513 944.373 431.371C984.264 417.877 1024.27 405.92 1064.06 395.631C1126.6 379.291 1188.23 368.266 1250.5 358.161C1295.33 350.887 1340.57 343.968 1386.36 335.599C1500.06 314.805 1614.43 277.763 1719.03 224.106C1738.25 214.256 1757.36 204.292 1776.4 194.245" stroke="url(#paint25_radial_595_1232)" stroke-miterlimit="10"/>
<path d="M-169.694 747.443C3.93077 684.485 182.464 629.223 357.378 587.655C409.758 575.203 461.499 563.485 512.935 551.8C540.462 545.544 567.883 539.049 595.334 532.45C710.207 504.837 827.009 467.003 945.938 427.194C985.944 413.801 1026.11 402.086 1066.1 392.187C1128.94 376.444 1190.89 366.355 1253.46 357.11C1298.51 350.45 1343.94 344.108 1389.91 336.165C1504.09 316.437 1618.75 279.429 1723.26 225.049C1742.44 215.062 1761.53 204.969 1780.54 194.773" stroke="url(#paint26_radial_595_1232)" stroke-miterlimit="10"/>
<path d="M-168.15 751.612C5.95672 689.09 184.558 633.241 359.352 589.646C411.7 576.587 463.412 564.145 514.797 551.69C542.303 545.032 569.697 538.115 597.118 531.086C711.816 501.704 828.334 462.46 947.501 422.976C987.632 409.68 1027.95 398.221 1068.13 388.712C1131.28 373.576 1193.56 364.41 1256.43 356.024C1301.68 349.991 1347.32 344.216 1393.47 336.707C1508.13 318.056 1623.1 281.067 1727.5 225.955C1746.67 215.838 1765.73 205.595 1784.71 195.262" stroke="url(#paint27_radial_595_1232)" stroke-miterlimit="10"/>
<path d="M-166.603 755.791C7.99821 693.712 186.643 637.263 361.316 591.641C413.644 577.98 465.304 564.8 516.652 551.592C544.134 544.522 571.495 537.197 598.899 529.743C713.414 498.606 829.656 457.94 949.051 418.783C989.297 405.587 1029.78 394.369 1070.15 385.252C1133.6 370.713 1196.21 362.483 1259.39 354.954C1304.85 349.535 1350.68 344.339 1397.01 337.267C1512.14 319.694 1627.41 282.736 1731.71 226.891C1750.86 216.644 1769.89 206.265 1788.84 195.773" stroke="url(#paint28_radial_595_1232)" stroke-miterlimit="10"/>
<path d="M-165.059 759.96C10.0242 698.317 188.724 641.275 363.29 593.633C415.585 579.364 467.208 565.462 518.526 551.488C545.985 544.007 573.321 536.27 600.689 528.398C715.022 495.505 830.987 453.417 950.62 414.583C990.978 401.478 1031.63 390.523 1072.19 381.786C1135.94 367.844 1198.87 360.55 1262.35 353.88C1308.03 349.086 1354.06 344.456 1400.57 337.821C1516.17 321.326 1631.74 284.39 1735.95 227.819C1755.08 217.441 1774.08 206.913 1793.01 196.282" stroke="url(#paint29_radial_595_1232)" stroke-miterlimit="10"/>
<path d="M-163.512 764.139C12.0562 702.942 190.809 645.296 365.267 595.635C417.529 580.758 469.125 566.131 520.394 551.397C547.819 543.507 575.132 535.359 602.479 527.053C716.64 492.402 832.309 448.897 952.189 410.384C992.662 397.379 1033.48 386.664 1074.23 378.33C1138.29 364.994 1201.55 358.624 1265.33 352.814C1311.22 348.634 1357.44 344.584 1404.14 338.382C1520.22 322.962 1636.09 286.05 1740.2 228.743C1759.3 218.226 1778.29 207.568 1797.18 196.791" stroke="url(#paint30_radial_595_1232)" stroke-miterlimit="10"/>
<path d="M-161.968 768.308C14.0917 707.544 192.89 649.308 367.232 597.629C419.461 582.145 471.02 566.796 522.246 551.29C549.65 542.997 576.936 534.428 604.257 525.701C718.236 489.294 833.237 443.117 953.745 406.179C994.468 393.703 1035.32 382.812 1076.26 374.857C1140.62 362.119 1204.2 356.684 1268.28 351.734C1314.38 348.181 1360.81 344.694 1407.67 338.932C1524.23 324.591 1640.4 287.709 1744.41 229.67C1763.49 219.023 1782.44 208.219 1801.31 197.302" stroke="url(#paint31_radial_595_1232)" stroke-miterlimit="10"/>
<path d="M-160.421 772.487C16.1237 712.168 194.975 653.329 369.209 599.631C421.417 583.545 472.927 567.468 524.114 551.198C551.485 542.497 578.756 533.513 606.038 524.359C719.844 486.193 834.584 438.642 955.298 401.995C996.129 389.601 1037.16 378.978 1078.29 371.403C1142.95 359.262 1206.86 354.764 1271.25 350.67C1317.56 347.732 1364.18 344.824 1411.23 339.496C1528.26 326.232 1644.73 289.372 1748.65 230.598C1767.7 219.824 1786.64 208.877 1805.48 197.814" stroke="url(#paint32_radial_595_1232)" stroke-miterlimit="10"/>
<path d="M-158.877 776.656C18.1496 716.774 196.942 657.01 371.183 601.623C423.326 584.824 474.841 568.127 525.988 551.094C553.335 541.982 580.583 532.586 607.837 523.01C721.472 483.086 835.939 434.164 956.876 397.793C997.817 385.48 1039.01 375.12 1080.34 367.934C1145.3 356.403 1209.54 352.702 1274.23 349.604C1320.75 347.197 1367.57 344.948 1414.79 340.05C1532.3 327.861 1649.06 291.035 1752.89 231.525C1771.92 220.612 1790.82 209.528 1809.64 198.325" stroke="url(#paint33_radial_595_1232)" stroke-miterlimit="10"/>
<path d="M-157.33 780.835C20.1911 721.395 199.035 661.06 373.15 603.627C425.263 586.23 476.738 568.802 527.847 551.006C555.173 541.492 582.384 531.678 609.621 521.678C723.083 479.995 837.279 429.701 958.438 393.606C999.488 381.374 1040.86 371.283 1082.38 364.491C1147.63 353.556 1212.2 350.8 1277.2 348.549C1323.94 346.767 1370.95 345.088 1418.35 340.623C1536.34 329.522 1653.4 292.708 1757.12 232.475C1776.14 221.431 1795.02 210.208 1813.8 198.859" stroke="url(#paint34_radial_595_1232)" stroke-miterlimit="10"/>
<path d="M-155.786 785.004C22.2172 726 201.116 665.103 375.124 605.619C427.208 587.623 478.642 569.464 529.708 550.896C557.001 540.972 584.198 530.744 611.396 520.316C724.688 476.884 838.937 426.291 959.992 389.391C1001.04 376.877 1042.69 367.412 1084.4 361.008C1149.96 350.681 1214.85 348.851 1280.15 347.46C1327.1 346.302 1374.31 345.189 1421.89 341.161C1540.37 331.135 1657.72 294.355 1761.35 233.377C1780.34 222.203 1799.18 210.834 1817.94 199.336" stroke="url(#paint35_radial_595_1232)" stroke-miterlimit="10"/>
<path d="M-154.239 789.183C24.2491 730.625 203.207 669.143 377.099 607.611C429.152 589.017 480.547 570.126 531.583 550.792C558.851 540.457 586.028 529.827 613.196 518.968C726.315 473.778 840.278 421.765 961.56 385.192C1002.73 372.775 1044.55 363.645 1086.44 357.542C1152.32 347.942 1217.53 346.925 1283.12 346.384C1330.29 345.849 1377.69 345.307 1425.45 341.716C1544.4 332.767 1662.05 296.009 1765.58 234.307C1784.55 223.004 1803.37 211.495 1822.1 199.848" stroke="url(#paint36_radial_595_1232)" stroke-miterlimit="10"/>
<path d="M-152.686 793.349C26.2876 735.237 205.297 673.184 379.073 609.602C431.096 590.41 482.463 570.795 533.448 550.691C560.695 539.954 587.845 528.902 614.986 517.623C727.933 470.674 841.6 417.245 963.132 381.002C1004.42 368.686 1046.4 359.808 1088.48 354.086C1154.67 345.092 1220.2 345.011 1286.09 345.32C1333.48 345.419 1381.07 345.434 1429.01 342.279C1548.44 334.406 1666.38 297.681 1769.82 235.235C1788.76 223.795 1807.57 212.143 1826.26 200.359" stroke="url(#paint37_radial_595_1232)" stroke-miterlimit="10"/>
<path d="M-151.139 797.528C28.3261 739.848 207.39 677.234 381.05 611.604C433.043 591.813 484.37 571.466 535.315 550.599C562.53 539.454 589.665 527.988 616.766 516.281C729.544 467.582 842.925 412.734 964.692 376.806C1006.09 364.59 1048.25 355.962 1090.51 350.632C1157.01 342.245 1222.87 343.097 1289.06 344.256C1336.65 344.982 1384.44 345.564 1432.56 342.846C1552.46 336.05 1670.71 299.347 1774.05 236.175C1792.97 224.604 1811.75 212.816 1830.42 200.884" stroke="url(#paint38_radial_595_1232)" stroke-miterlimit="10"/>
<path d="M-149.595 801.697C30.3551 744.463 209.471 681.277 383.024 613.596C434.987 593.207 486.275 572.128 537.18 550.499C564.371 538.942 591.5 527.121 618.557 514.935C731.265 464.708 844.256 408.211 966.251 372.61C1007.77 360.494 1050.09 352.119 1092.54 347.17C1159.33 339.392 1225.53 341.177 1292.02 343.183C1339.83 344.533 1387.82 345.691 1436.12 343.39C1556.49 337.682 1675.04 301.001 1778.28 237.096C1797.18 225.396 1815.93 213.458 1834.57 201.389" stroke="url(#paint39_radial_595_1232)" stroke-miterlimit="10"/>
<path d="M-148.048 805.876C32.3841 749.078 211.562 685.317 384.991 615.6C436.935 594.61 488.172 572.803 539.045 550.398C566.205 538.442 593.317 526.197 620.347 513.59C732.884 461.573 845.591 403.698 967.82 368.411C1009.45 356.395 1051.93 348.264 1094.58 343.704C1161.68 336.533 1228.2 339.254 1294.99 342.11C1343.01 344.084 1391.19 345.811 1439.67 343.945C1560.53 339.311 1679.37 302.664 1782.51 238.014C1801.39 226.183 1820.11 214.109 1838.73 201.891" stroke="url(#paint40_radial_595_1232)" stroke-miterlimit="10"/>
<path d="M-146.504 810.045C34.4226 753.69 213.643 689.361 386.965 617.592C438.879 596.003 490.077 573.465 540.91 550.297C568.046 537.929 595.131 525.263 622.125 512.238C734.48 458.433 846.91 399.168 969.376 364.205C1011.12 352.29 1053.77 344.408 1096.61 340.24C1164.01 333.667 1230.86 337.33 1297.96 341.046C1346.2 343.644 1394.57 345.938 1443.22 344.511C1564.56 340.956 1683.7 304.33 1786.75 238.954C1805.61 226.993 1824.3 214.77 1842.88 202.415" stroke="url(#paint41_radial_595_1232)" stroke-miterlimit="10"/>
<path d="M-144.957 814.224C36.4515 758.305 215.736 693.411 388.942 619.593C440.826 597.406 491.993 574.134 542.778 550.206C569.89 537.426 596.948 524.339 623.918 510.903C736.095 455.32 848.238 394.667 970.951 360.025C1012.81 348.21 1055.63 340.581 1098.65 336.794C1166.35 330.83 1233.54 335.426 1300.93 339.992C1349.38 343.214 1397.95 346.078 1446.79 345.084C1568.61 342.614 1688.04 306.012 1790.98 239.894C1809.81 227.797 1828.49 215.441 1847.04 202.927" stroke="url(#paint42_radial_595_1232)" stroke-miterlimit="10"/>
<path d="M-143.413 818.393C38.4805 762.92 217.817 697.454 390.907 621.588C442.761 598.803 493.888 574.799 544.633 550.108C571.715 536.929 598.756 523.418 625.698 509.56C737.704 452.187 849.559 390.147 972.5 355.832C1014.48 344.117 1057.45 336.741 1100.67 333.333C1168.67 327.976 1236.19 333.509 1303.88 338.922C1352.55 342.78 1401.32 346.198 1450.33 345.644C1572.63 344.249 1692.35 307.681 1795.2 240.828C1814.01 228.6 1832.66 216.108 1851.19 203.445" stroke="url(#paint43_radial_595_1232)" stroke-miterlimit="10"/>
<path d="M-141.866 822.572C40.519 767.532 219.907 701.494 392.881 623.58C444.705 600.196 495.792 575.461 546.504 549.994C573.562 536.404 600.567 522.475 627.483 508.196C739.306 449.036 850.888 385.614 974.063 351.613C1016.16 339.999 1059.3 332.873 1102.71 329.848C1171.01 325.098 1238.86 331.563 1306.84 337.829C1355.72 342.312 1404.68 346.299 1453.88 346.179C1576.65 345.871 1696.67 309.316 1799.43 241.727C1818.22 229.369 1836.85 216.727 1855.34 203.928" stroke="url(#paint44_radial_595_1232)" stroke-miterlimit="10"/>
<path d="M-140.322 826.742C42.548 772.147 221.988 705.538 394.855 625.572C446.649 601.59 497.699 576.133 548.369 549.894C575.397 535.904 602.384 521.551 629.273 506.851C740.915 445.903 852.21 381.094 975.632 347.414C1017.84 335.9 1061.15 329.027 1104.75 326.392C1173.35 322.251 1241.53 329.64 1309.82 336.763C1358.92 341.869 1408.08 346.433 1457.45 346.74C1580.71 347.507 1701.01 310.988 1803.67 242.664C1822.44 230.176 1841.04 217.398 1859.51 204.449" stroke="url(#paint45_radial_595_1232)" stroke-miterlimit="10"/>
<path d="M-138.775 830.92C99.5272 760.531 331.314 668.154 550.237 549.802C689.722 476.434 823.836 384.943 977.194 343.228C1019.54 331.899 1062.98 325.07 1106.78 322.938C1225.21 316.542 1342.52 346.301 1461 347.307C1584.72 349.961 1705.96 313.58 1807.91 243.604C1826.76 231.153 1845.23 218.059 1863.66 204.973" stroke="url(#paint46_radial_595_1232)" stroke-miterlimit="10"/>
<defs>
<radialGradient id="paint0_radial_595_1232" cx="0" cy="0" r="1" gradientUnits="userSpaceOnUse" gradientTransform="translate(746.548 459.064) rotate(-17.3553) scale(689.15 551.32)">
<stop offset="0.19" stop-color="#1CAADA" stop-opacity="0.9"/>
<stop offset="0.57" stop-color="#ED4562" stop-opacity="0.6"/>
<stop offset="0.78" stop-color="#9A3380" stop-opacity="0.6"/>
<stop offset="1" stop-opacity="0.4"/>
</radialGradient>
<radialGradient id="paint1_radial_595_1232" cx="0" cy="0" r="1" gradientUnits="userSpaceOnUse" gradientTransform="translate(748.607 458.848) rotate(-17.3553) scale(690.01 552.008)">
<stop offset="0.19" stop-color="#1CAADA" stop-opacity="0.9"/>
<stop offset="0.57" stop-color="#ED4562" stop-opacity="0.6"/>
<stop offset="0.78" stop-color="#9A3380" stop-opacity="0.6"/>
<stop offset="1" stop-opacity="0.4"/>
</radialGradient>
<radialGradient id="paint2_radial_595_1232" cx="0" cy="0" r="1" gradientUnits="userSpaceOnUse" gradientTransform="translate(750.689 458.738) rotate(-17.3553) scale(690.92 552.736)">
<stop offset="0.19" stop-color="#1CAADA" stop-opacity="0.9"/>
<stop offset="0.57" stop-color="#ED4562" stop-opacity="0.6"/>
<stop offset="0.78" stop-color="#9A3380" stop-opacity="0.6"/>
<stop offset="1" stop-opacity="0.4"/>
</radialGradient>
<radialGradient id="paint3_radial_595_1232" cx="0" cy="0" r="1" gradientUnits="userSpaceOnUse" gradientTransform="translate(752.783 458.635) rotate(-17.3553) scale(691.84 553.472)">
<stop offset="0.19" stop-color="#1CAADA" stop-opacity="0.9"/>
<stop offset="0.57" stop-color="#ED4562" stop-opacity="0.6"/>
<stop offset="0.78" stop-color="#9A3380" stop-opacity="0.6"/>
<stop offset="1" stop-opacity="0.4"/>
</radialGradient>
<radialGradient id="paint4_radial_595_1232" cx="0" cy="0" r="1" gradientUnits="userSpaceOnUse" gradientTransform="translate(754.865 458.525) rotate(-17.3553) scale(692.77 554.216)">
<stop offset="0.19" stop-color="#1CAADA" stop-opacity="0.9"/>
<stop offset="0.57" stop-color="#ED4562" stop-opacity="0.6"/>
<stop offset="0.78" stop-color="#9A3380" stop-opacity="0.6"/>
<stop offset="1" stop-opacity="0.4"/>
</radialGradient>
<radialGradient id="paint5_radial_595_1232" cx="0" cy="0" r="1" gradientUnits="userSpaceOnUse" gradientTransform="translate(756.962 458.429) rotate(-17.3553) scale(693.72 554.976)">
<stop offset="0.19" stop-color="#1CAADA" stop-opacity="0.9"/>
<stop offset="0.57" stop-color="#ED4562" stop-opacity="0.6"/>
<stop offset="0.78" stop-color="#9A3380" stop-opacity="0.6"/>
<stop offset="1" stop-opacity="0.4"/>
</radialGradient>
<radialGradient id="paint6_radial_595_1232" cx="0" cy="0" r="1" gradientUnits="userSpaceOnUse" gradientTransform="translate(759.044 458.319) rotate(-17.3553) scale(694.67 555.736)">
<stop offset="0.19" stop-color="#1CAADA" stop-opacity="0.9"/>
<stop offset="0.57" stop-color="#ED4562" stop-opacity="0.6"/>
<stop offset="0.78" stop-color="#9A3380" stop-opacity="0.6"/>
<stop offset="1" stop-opacity="0.4"/>
</radialGradient>
<radialGradient id="paint7_radial_595_1232" cx="0" cy="0" r="1" gradientUnits="userSpaceOnUse" gradientTransform="translate(761.138 458.215) rotate(-17.3553) scale(695.65 556.52)">
<stop offset="0.19" stop-color="#1CAADA" stop-opacity="0.9"/>
<stop offset="0.57" stop-color="#ED4562" stop-opacity="0.6"/>
<stop offset="0.78" stop-color="#9A3380" stop-opacity="0.6"/>
<stop offset="1" stop-opacity="0.4"/>
</radialGradient>
<radialGradient id="paint8_radial_595_1232" cx="0" cy="0" r="1" gradientUnits="userSpaceOnUse" gradientTransform="translate(763.22 458.105) rotate(-17.3553) scale(696.63 557.304)">
<stop offset="0.19" stop-color="#1CAADA" stop-opacity="0.9"/>
<stop offset="0.57" stop-color="#ED4562" stop-opacity="0.6"/>
<stop offset="0.78" stop-color="#9A3380" stop-opacity="0.6"/>
<stop offset="1" stop-opacity="0.4"/>
</radialGradient>
<radialGradient id="paint9_radial_595_1232" cx="0" cy="0" r="1" gradientUnits="userSpaceOnUse" gradientTransform="translate(765.312 457.992) rotate(-17.3553) scale(697.63 558.104)">
<stop offset="0.19" stop-color="#1CAADA" stop-opacity="0.9"/>
<stop offset="0.57" stop-color="#ED4562" stop-opacity="0.6"/>
<stop offset="0.78" stop-color="#9A3380" stop-opacity="0.6"/>
<stop offset="1" stop-opacity="0.4"/>
</radialGradient>
<radialGradient id="paint10_radial_595_1232" cx="0" cy="0" r="1" gradientUnits="userSpaceOnUse" gradientTransform="translate(767.399 457.899) rotate(-17.3553) scale(698.64 558.912)">
<stop offset="0.19" stop-color="#1CAADA" stop-opacity="0.9"/>
<stop offset="0.57" stop-color="#ED4562" stop-opacity="0.6"/>
<stop offset="0.78" stop-color="#9A3380" stop-opacity="0.6"/>
<stop offset="1" stop-opacity="0.4"/>
</radialGradient>
<radialGradient id="paint11_radial_595_1232" cx="0" cy="0" r="1" gradientUnits="userSpaceOnUse" gradientTransform="translate(769.491 457.786) rotate(-17.3553) scale(699.67 559.736)">
<stop offset="0.19" stop-color="#1CAADA" stop-opacity="0.9"/>
<stop offset="0.57" stop-color="#ED4562" stop-opacity="0.6"/>
<stop offset="0.78" stop-color="#9A3380" stop-opacity="0.6"/>
<stop offset="1" stop-opacity="0.4"/>
</radialGradient>
<radialGradient id="paint12_radial_595_1232" cx="0" cy="0" r="1" gradientUnits="userSpaceOnUse" gradientTransform="translate(771.576 457.686) rotate(-17.3553) scale(700.71 560.568)">
<stop offset="0.19" stop-color="#1CAADA" stop-opacity="0.9"/>
<stop offset="0.57" stop-color="#ED4562" stop-opacity="0.6"/>
<stop offset="0.78" stop-color="#9A3380" stop-opacity="0.6"/>
<stop offset="1" stop-opacity="0.4"/>
</radialGradient>
<radialGradient id="paint13_radial_595_1232" cx="0" cy="0" r="1" gradientUnits="userSpaceOnUse" gradientTransform="translate(773.658 457.576) rotate(-17.3553) scale(701.76 561.408)">
<stop offset="0.19" stop-color="#1CAADA" stop-opacity="0.9"/>
<stop offset="0.57" stop-color="#ED4562" stop-opacity="0.6"/>
<stop offset="0.78" stop-color="#9A3380" stop-opacity="0.6"/>
<stop offset="1" stop-opacity="0.4"/>
</radialGradient>
<radialGradient id="paint14_radial_595_1232" cx="0" cy="0" r="1" gradientUnits="userSpaceOnUse" gradientTransform="translate(775.752 457.472) rotate(-17.3553) scale(702.82 562.256)">
<stop offset="0.19" stop-color="#1CAADA" stop-opacity="0.9"/>
<stop offset="0.57" stop-color="#ED4562" stop-opacity="0.6"/>
<stop offset="0.78" stop-color="#9A3380" stop-opacity="0.6"/>
<stop offset="1" stop-opacity="0.4"/>
</radialGradient>
<radialGradient id="paint15_radial_595_1232" cx="0" cy="0" r="1" gradientUnits="userSpaceOnUse" gradientTransform="translate(777.834 457.362) rotate(-17.3553) scale(703.9 563.12)">
<stop offset="0.19" stop-color="#1CAADA" stop-opacity="0.9"/>
<stop offset="0.57" stop-color="#ED4562" stop-opacity="0.6"/>
<stop offset="0.78" stop-color="#9A3380" stop-opacity="0.6"/>
<stop offset="1" stop-opacity="0.4"/>
</radialGradient>
<radialGradient id="paint16_radial_595_1232" cx="0" cy="0" r="1" gradientUnits="userSpaceOnUse" gradientTransform="translate(779.926 457.249) rotate(-17.3553) scale(704.99 563.992)">
<stop offset="0.19" stop-color="#1CAADA" stop-opacity="0.9"/>
<stop offset="0.57" stop-color="#ED4562" stop-opacity="0.6"/>
<stop offset="0.78" stop-color="#9A3380" stop-opacity="0.6"/>
<stop offset="1" stop-opacity="0.4"/>
</radialGradient>
<radialGradient id="paint17_radial_595_1232" cx="0" cy="0" r="1" gradientUnits="userSpaceOnUse" gradientTransform="translate(782.023 457.189) rotate(-17.3553) scale(706.09 564.872)">
<stop offset="0.19" stop-color="#1CAADA" stop-opacity="0.9"/>
<stop offset="0.57" stop-color="#ED4562" stop-opacity="0.6"/>
<stop offset="0.78" stop-color="#9A3380" stop-opacity="0.6"/>
<stop offset="1" stop-opacity="0.4"/>
</radialGradient>
<radialGradient id="paint18_radial_595_1232" cx="0" cy="0" r="1" gradientUnits="userSpaceOnUse" gradientTransform="translate(785.007 459.932) rotate(-17.3553) scale(707.31 565.848)">
<stop offset="0.19" stop-color="#1CAADA" stop-opacity="0.9"/>
<stop offset="0.57" stop-color="#ED4562" stop-opacity="0.6"/>
<stop offset="0.78" stop-color="#9A3380" stop-opacity="0.6"/>
<stop offset="1" stop-opacity="0.4"/>
</radialGradient>
<radialGradient id="paint19_radial_595_1232" cx="0" cy="0" r="1" gradientUnits="userSpaceOnUse" gradientTransform="translate(787.984 462.685) rotate(-17.3553) scale(708.54 566.832)">
<stop offset="0.19" stop-color="#1CAADA" stop-opacity="0.9"/>
<stop offset="0.57" stop-color="#ED4562" stop-opacity="0.6"/>
<stop offset="0.78" stop-color="#9A3380" stop-opacity="0.6"/>
<stop offset="1" stop-opacity="0.4"/>
</radialGradient>
<radialGradient id="paint20_radial_595_1232" cx="0" cy="0" r="1" gradientUnits="userSpaceOnUse" gradientTransform="translate(790.978 465.46) rotate(-17.3553) scale(709.76 567.808)">
<stop offset="0.19" stop-color="#1CAADA" stop-opacity="0.9"/>
<stop offset="0.57" stop-color="#ED4562" stop-opacity="0.6"/>
<stop offset="0.78" stop-color="#9A3380" stop-opacity="0.6"/>
<stop offset="1" stop-opacity="0.4"/>
</radialGradient>
<radialGradient id="paint21_radial_595_1232" cx="0" cy="0" r="1" gradientUnits="userSpaceOnUse" gradientTransform="translate(793.965 468.246) rotate(-17.3553) scale(710.99 568.792)">
<stop offset="0.19" stop-color="#1CAADA" stop-opacity="0.9"/>
<stop offset="0.57" stop-color="#ED4562" stop-opacity="0.6"/>
<stop offset="0.78" stop-color="#9A3380" stop-opacity="0.6"/>
<stop offset="1" stop-opacity="0.4"/>
</radialGradient>
<radialGradient id="paint22_radial_595_1232" cx="0" cy="0" r="1" gradientUnits="userSpaceOnUse" gradientTransform="translate(796.962 471.029) rotate(-17.3553) scale(712.22 569.776)">
<stop offset="0.19" stop-color="#1CAADA" stop-opacity="0.9"/>
<stop offset="0.57" stop-color="#ED4562" stop-opacity="0.6"/>
<stop offset="0.78" stop-color="#9A3380" stop-opacity="0.6"/>
<stop offset="1" stop-opacity="0.4"/>
</radialGradient>
<radialGradient id="paint23_radial_595_1232" cx="0" cy="0" r="1" gradientUnits="userSpaceOnUse" gradientTransform="translate(799.949 473.815) rotate(-17.3553) scale(713.45 570.76)">
<stop offset="0.19" stop-color="#1CAADA" stop-opacity="0.9"/>
<stop offset="0.57" stop-color="#ED4562" stop-opacity="0.6"/>
<stop offset="0.78" stop-color="#9A3380" stop-opacity="0.6"/>
<stop offset="1" stop-opacity="0.4"/>
</radialGradient>
<radialGradient id="paint24_radial_595_1232" cx="0" cy="0" r="1" gradientUnits="userSpaceOnUse" gradientTransform="translate(802.945 476.597) rotate(-17.3553) scale(714.68 571.744)">
<stop offset="0.19" stop-color="#1CAADA" stop-opacity="0.9"/>
<stop offset="0.57" stop-color="#ED4562" stop-opacity="0.6"/>
<stop offset="0.78" stop-color="#9A3380" stop-opacity="0.6"/>
<stop offset="1" stop-opacity="0.4"/>
</radialGradient>
<radialGradient id="paint25_radial_595_1232" cx="0" cy="0" r="1" gradientUnits="userSpaceOnUse" gradientTransform="translate(805.932 479.383) rotate(-17.3553) scale(715.92 572.736)">
<stop offset="0.19" stop-color="#1CAADA" stop-opacity="0.9"/>
<stop offset="0.57" stop-color="#ED4562" stop-opacity="0.6"/>
<stop offset="0.78" stop-color="#9A3380" stop-opacity="0.6"/>
<stop offset="1" stop-opacity="0.4"/>
</radialGradient>
<radialGradient id="paint26_radial_595_1232" cx="0" cy="0" r="1" gradientUnits="userSpaceOnUse" gradientTransform="translate(808.926 482.158) rotate(-17.3553) scale(717.15 573.72)">
<stop offset="0.19" stop-color="#1CAADA" stop-opacity="0.9"/>
<stop offset="0.57" stop-color="#ED4562" stop-opacity="0.6"/>
<stop offset="0.78" stop-color="#9A3380" stop-opacity="0.6"/>
<stop offset="1" stop-opacity="0.4"/>
</radialGradient>
<radialGradient id="paint27_radial_595_1232" cx="0" cy="0" r="1" gradientUnits="userSpaceOnUse" gradientTransform="translate(811.905 484.92) rotate(-17.3553) scale(718.39 574.712)">
<stop offset="0.19" stop-color="#1CAADA" stop-opacity="0.9"/>
<stop offset="0.57" stop-color="#ED4562" stop-opacity="0.6"/>
<stop offset="0.78" stop-color="#9A3380" stop-opacity="0.6"/>
<stop offset="1" stop-opacity="0.4"/>
</radialGradient>
<radialGradient id="paint28_radial_595_1232" cx="0" cy="0" r="1" gradientUnits="userSpaceOnUse" gradientTransform="translate(814.878 487.658) rotate(-17.3553) scale(719.63 575.704)">
<stop offset="0.19" stop-color="#1CAADA" stop-opacity="0.9"/>
<stop offset="0.57" stop-color="#ED4562" stop-opacity="0.6"/>
<stop offset="0.78" stop-color="#9A3380" stop-opacity="0.6"/>
<stop offset="1" stop-opacity="0.4"/>
</radialGradient>
<radialGradient id="paint29_radial_595_1232" cx="0" cy="0" r="1" gradientUnits="userSpaceOnUse" gradientTransform="translate(817.852 490.37) rotate(-17.3553) scale(720.87 576.696)">
<stop offset="0.19" stop-color="#1CAADA" stop-opacity="0.9"/>
<stop offset="0.57" stop-color="#ED4562" stop-opacity="0.6"/>
<stop offset="0.78" stop-color="#9A3380" stop-opacity="0.6"/>
<stop offset="1" stop-opacity="0.4"/>
</radialGradient>
<radialGradient id="paint30_radial_595_1232" cx="0" cy="0" r="1" gradientUnits="userSpaceOnUse" gradientTransform="translate(820.797 493.02) rotate(-17.3553) scale(722.11 577.688)">
<stop offset="0.19" stop-color="#1CAADA" stop-opacity="0.9"/>
<stop offset="0.57" stop-color="#ED4562" stop-opacity="0.6"/>
<stop offset="0.78" stop-color="#9A3380" stop-opacity="0.6"/>
<stop offset="1" stop-opacity="0.4"/>
</radialGradient>
<radialGradient id="paint31_radial_595_1232" cx="0" cy="0" r="1" gradientUnits="userSpaceOnUse" gradientTransform="translate(822.719 492.367) rotate(-17.3553) scale(723.45 578.76)">
<stop offset="0.19" stop-color="#1CAADA" stop-opacity="0.9"/>
<stop offset="0.57" stop-color="#ED4562" stop-opacity="0.6"/>
<stop offset="0.78" stop-color="#9A3380" stop-opacity="0.6"/>
<stop offset="1" stop-opacity="0.4"/>
</radialGradient>
<radialGradient id="paint32_radial_595_1232" cx="0" cy="0" r="1" gradientUnits="userSpaceOnUse" gradientTransform="translate(824.498 491.287) rotate(-17.3553) scale(724.81 579.848)">
<stop offset="0.19" stop-color="#1CAADA" stop-opacity="0.9"/>
<stop offset="0.57" stop-color="#ED4562" stop-opacity="0.6"/>
<stop offset="0.78" stop-color="#9A3380" stop-opacity="0.6"/>
<stop offset="1" stop-opacity="0.4"/>
</radialGradient>
<radialGradient id="paint33_radial_595_1232" cx="0" cy="0" r="1" gradientUnits="userSpaceOnUse" gradientTransform="translate(826.287 490.204) rotate(-17.3553) scale(726.18 580.944)">
<stop offset="0.19" stop-color="#1CAADA" stop-opacity="0.9"/>
<stop offset="0.57" stop-color="#ED4562" stop-opacity="0.6"/>
<stop offset="0.78" stop-color="#9A3380" stop-opacity="0.6"/>
<stop offset="1" stop-opacity="0.4"/>
</radialGradient>
<radialGradient id="paint34_radial_595_1232" cx="0" cy="0" r="1" gradientUnits="userSpaceOnUse" gradientTransform="translate(828.066 489.125) rotate(-17.3553) scale(727.56 582.048)">
<stop offset="0.19" stop-color="#1CAADA" stop-opacity="0.9"/>
<stop offset="0.57" stop-color="#ED4562" stop-opacity="0.6"/>
<stop offset="0.78" stop-color="#9A3380" stop-opacity="0.6"/>
<stop offset="1" stop-opacity="0.4"/>
</radialGradient>
<radialGradient id="paint35_radial_595_1232" cx="0" cy="0" r="1" gradientUnits="userSpaceOnUse" gradientTransform="translate(829.874 488.105) rotate(-17.3553) scale(728.93 583.144)">
<stop offset="0.19" stop-color="#1CAADA" stop-opacity="0.9"/>
<stop offset="0.57" stop-color="#ED4562" stop-opacity="0.6"/>
<stop offset="0.78" stop-color="#9A3380" stop-opacity="0.6"/>
<stop offset="1" stop-opacity="0.4"/>
</radialGradient>
<radialGradient id="paint36_radial_595_1232" cx="0" cy="0" r="1" gradientUnits="userSpaceOnUse" gradientTransform="translate(831.653 487.025) rotate(-17.3553) scale(730.32 584.256)">
<stop offset="0.19" stop-color="#1CAADA" stop-opacity="0.9"/>
<stop offset="0.57" stop-color="#ED4562" stop-opacity="0.6"/>
<stop offset="0.78" stop-color="#9A3380" stop-opacity="0.6"/>
<stop offset="1" stop-opacity="0.4"/>
</radialGradient>
<radialGradient id="paint37_radial_595_1232" cx="0" cy="0" r="1" gradientUnits="userSpaceOnUse" gradientTransform="translate(833.441 485.942) rotate(-17.3553) scale(731.71 585.368)">
<stop offset="0.19" stop-color="#1CAADA" stop-opacity="0.9"/>
<stop offset="0.57" stop-color="#ED4562" stop-opacity="0.6"/>
<stop offset="0.78" stop-color="#9A3380" stop-opacity="0.6"/>
<stop offset="1" stop-opacity="0.4"/>
</radialGradient>
<radialGradient id="paint38_radial_595_1232" cx="0" cy="0" r="1" gradientUnits="userSpaceOnUse" gradientTransform="translate(835.22 484.862) rotate(-17.3553) scale(733.11 586.488)">
<stop offset="0.19" stop-color="#1CAADA" stop-opacity="0.9"/>
<stop offset="0.57" stop-color="#ED4562" stop-opacity="0.6"/>
<stop offset="0.78" stop-color="#9A3380" stop-opacity="0.6"/>
<stop offset="1" stop-opacity="0.4"/>
</radialGradient>
<radialGradient id="paint39_radial_595_1232" cx="0" cy="0" r="1" gradientUnits="userSpaceOnUse" gradientTransform="translate(837.004 483.8) rotate(-17.3553) scale(734.52 587.616)">
<stop offset="0.19" stop-color="#1CAADA" stop-opacity="0.9"/>
<stop offset="0.57" stop-color="#ED4562" stop-opacity="0.6"/>
<stop offset="0.78" stop-color="#9A3380" stop-opacity="0.6"/>
<stop offset="1" stop-opacity="0.4"/>
</radialGradient>
<radialGradient id="paint40_radial_595_1232" cx="0" cy="0" r="1" gradientUnits="userSpaceOnUse" gradientTransform="translate(838.787 482.7) rotate(-17.3553) scale(735.93 588.744)">
<stop offset="0.19" stop-color="#1CAADA" stop-opacity="0.9"/>
<stop offset="0.57" stop-color="#ED4562" stop-opacity="0.6"/>
<stop offset="0.78" stop-color="#9A3380" stop-opacity="0.6"/>
<stop offset="1" stop-opacity="0.4"/>
</radialGradient>
<radialGradient id="paint41_radial_595_1232" cx="0" cy="0" r="1" gradientUnits="userSpaceOnUse" gradientTransform="translate(840.566 481.62) rotate(-17.3553) scale(737.35 589.88)">
<stop offset="0.19" stop-color="#1CAADA" stop-opacity="0.9"/>
<stop offset="0.57" stop-color="#ED4562" stop-opacity="0.6"/>
<stop offset="0.78" stop-color="#9A3380" stop-opacity="0.6"/>
<stop offset="1" stop-opacity="0.4"/>
</radialGradient>
<radialGradient id="paint42_radial_595_1232" cx="0" cy="0" r="1" gradientUnits="userSpaceOnUse" gradientTransform="translate(842.354 480.537) rotate(-17.3553) scale(738.77 591.016)">
<stop offset="0.19" stop-color="#1CAADA" stop-opacity="0.9"/>
<stop offset="0.57" stop-color="#ED4562" stop-opacity="0.6"/>
<stop offset="0.78" stop-color="#9A3380" stop-opacity="0.6"/>
<stop offset="1" stop-opacity="0.4"/>
</radialGradient>
<radialGradient id="paint43_radial_595_1232" cx="0" cy="0" r="1" gradientUnits="userSpaceOnUse" gradientTransform="translate(844.133 479.457) rotate(-17.3553) scale(740.2 592.16)">
<stop offset="0.19" stop-color="#1CAADA" stop-opacity="0.9"/>
<stop offset="0.57" stop-color="#ED4562" stop-opacity="0.6"/>
<stop offset="0.78" stop-color="#9A3380" stop-opacity="0.6"/>
<stop offset="1" stop-opacity="0.4"/>
</radialGradient>
<radialGradient id="paint44_radial_595_1232" cx="0" cy="0" r="1" gradientUnits="userSpaceOnUse" gradientTransform="translate(845.912 478.378) rotate(-17.3553) scale(741.64 593.312)">
<stop offset="0.19" stop-color="#1CAADA" stop-opacity="0.9"/>
<stop offset="0.57" stop-color="#ED4562" stop-opacity="0.6"/>
<stop offset="0.78" stop-color="#9A3380" stop-opacity="0.6"/>
<stop offset="1" stop-opacity="0.4"/>
</radialGradient>
<radialGradient id="paint45_radial_595_1232" cx="0" cy="0" r="1" gradientUnits="userSpaceOnUse" gradientTransform="translate(847.691 477.298) rotate(-17.3553) scale(743.08 594.464)">
<stop offset="0.19" stop-color="#1CAADA" stop-opacity="0.9"/>
<stop offset="0.57" stop-color="#ED4562" stop-opacity="0.6"/>
<stop offset="0.78" stop-color="#9A3380" stop-opacity="0.6"/>
<stop offset="1" stop-opacity="0.4"/>
</radialGradient>
<radialGradient id="paint46_radial_595_1232" cx="0" cy="0" r="1" gradientUnits="userSpaceOnUse" gradientTransform="translate(849.592 476.574) rotate(-17.3553) scale(744.55 595.64)">
<stop offset="0.19" stop-color="#1CAADA" stop-opacity="0.9"/>
<stop offset="0.57" stop-color="#ED4562" stop-opacity="0.6"/>
<stop offset="0.78" stop-color="#9A3380" stop-opacity="0.6"/>
<stop offset="1" stop-opacity="0.4"/>
</radialGradient>
</defs>
</svg>
