<svg width="1374" height="362" viewBox="0 0 1374 362" fill="none" xmlns="http://www.w3.org/2000/svg">
<path d="M1 -54.42C89.49 -62.05 178.14 -66.64 264.82 -45.79C371.77 -21.85 467.5 38.27 567.59 81.25C621.75 104.49 678.01 121.8 736.4 129.33C773.67 134.28 811.39 135.41 848.98 134.09C952.31 130.41 1056.26 109.76 1159.76 118.43C1266.88 125.85 1366.58 168.51 1460.29 219.02C1548.81 266.69 1638.17 315.67 1728.14 360.64" stroke="url(#paint0_radial_595_1187)" stroke-miterlimit="10"/>
<path d="M1.34998 -52.74C89.61 -60.83 177.84 -65.28 264.48 -46.01C371.04 -22.31 467.05 35.42 567.19 78.26C572.25 80.42 577.32 82.5301 582.41 84.6001C631.82 104.6 682.81 119.64 735.49 126.84C772.61 132.06 810.17 133.55 847.62 132.6C927.35 130.51 1007.53 118.26 1087.94 116.52C1111.2 116.03 1134.45 116.6 1157.7 118.28C1264.55 126.01 1364.29 166.38 1458.06 216.38C1510.57 244.12 1562.99 273.03 1615.81 301.18C1653.6 321.34 1691.58 341.08 1729.67 360.11" stroke="url(#paint1_radial_595_1187)" stroke-miterlimit="10"/>
<path d="M1.70001 -51.06C89.73 -59.6 177.71 -64.6 264.14 -46.23C370.51 -23.62 466.59 32.58 566.8 75.26C571.85 77.41 576.92 79.52 582 81.57C631.37 101.53 682.19 116.65 734.6 124.32C771.59 129.73 808.97 131.65 846.28 131.07C925.65 129.74 1005.55 118.29 1086.03 116.5C1109.25 116 1132.45 116.52 1155.66 118.1C1262.3 125.37 1361.84 164.56 1455.85 213.71C1509.19 241.6 1562.27 271.01 1615.8 299.7C1654.07 320.25 1692.58 340.27 1731.22 359.55" stroke="url(#paint2_radial_595_1187)" stroke-miterlimit="10"/>
<path d="M2.04999 -49.39C89.85 -58.38 177.59 -63.94 263.8 -46.46C369.98 -24.94 466.14 29.72 566.4 72.25C571.44 74.39 576.5 76.49 581.58 78.54C630.9 98.47 681.54 113.76 733.7 121.8C770.55 127.48 807.76 129.76 844.92 129.54C923.94 128.97 1003.54 118.32 1084.09 116.48C1107.26 115.97 1130.42 116.43 1153.59 117.91C1260.01 124.72 1359.47 162.53 1453.61 211.03C1507.84 238.97 1561.52 268.98 1615.76 298.22C1654.5 319.15 1693.55 339.45 1732.74 359" stroke="url(#paint3_radial_595_1187)" stroke-miterlimit="10"/>
<path d="M2.40002 -47.71C89.97 -57.16 177.46 -63.26 263.46 -46.68C369.46 -26.25 465.69 26.88 566.01 69.25C571.05 71.38 576.1 73.47 581.17 75.51C630.45 95.4 680.9 110.88 732.81 119.28C769.52 125.22 806.56 127.87 843.58 128.02C922.24 128.21 1001.56 118.36 1082.18 116.47C1105.31 115.96 1128.43 116.35 1151.55 117.74C1257.76 124.09 1357.13 160.51 1451.4 208.38C1506.52 236.37 1560.8 266.99 1615.75 296.76C1654.96 318.07 1694.55 338.65 1734.29 358.46" stroke="url(#paint4_radial_595_1187)" stroke-miterlimit="10"/>
<path d="M2.75 -46.04C90.1 -55.94 177.33 -62.6 263.12 -46.91C368.93 -27.57 465.24 24.02 565.62 66.24C570.65 68.36 575.69 70.44 580.75 72.48C629.98 92.34 680.25 107.99 731.91 116.76C768.48 122.97 805.36 125.98 842.23 126.49C920.53 127.44 999.56 118.4 1080.25 116.45C1103.33 115.93 1126.41 116.27 1149.49 117.55C1255.48 123.44 1354.78 158.47 1449.16 205.7C1505.18 233.73 1560.06 264.96 1615.71 295.27C1655.4 316.97 1695.52 337.82 1735.81 357.9" stroke="url(#paint5_radial_595_1187)" stroke-miterlimit="10"/>
<path d="M3.09998 -44.36C90.22 -54.72 177.2 -61.93 262.78 -47.13C368.4 -28.88 464.79 21.17 565.22 63.24C570.24 65.34 575.28 67.42 580.33 69.46C629.52 89.28 679.6 105.11 731.01 114.26C767.44 120.74 804.15 124.1 840.88 124.99C918.82 126.7 997.57 118.46 1078.32 116.46C1101.36 115.94 1124.39 116.21 1147.43 117.39C1253.21 122.82 1352.44 156.44 1446.93 203.05C1503.85 231.12 1559.32 262.96 1615.68 293.81C1655.84 315.89 1696.5 337.03 1737.34 357.36" stroke="url(#paint6_radial_595_1187)" stroke-miterlimit="10"/>
<path d="M3.45001 -42.68C90.34 -53.49 177.07 -61.25 262.45 -47.36C367.88 -30.2 464.34 18.32 564.84 60.23C569.85 62.32 574.88 64.39 579.93 66.42C629.08 86.21 678.98 102.22 730.13 111.73C766.41 118.48 802.96 122.2 839.55 123.45C917.13 125.92 995.59 118.48 1076.42 116.43C1099.41 115.9 1122.4 116.11 1145.4 117.2C1250.96 122.17 1350.13 154.38 1444.73 200.37C1502.55 228.48 1558.61 260.93 1615.69 292.33C1656.32 314.8 1697.52 336.21 1738.91 356.8" stroke="url(#paint7_radial_595_1187)" stroke-miterlimit="10"/>
<path d="M3.79999 -41.01C90.46 -52.27 176.94 -60.59 262.11 -47.59C367.35 -31.52 463.89 15.46 564.45 57.22C569.46 59.3 574.48 61.36 579.52 63.39C628.62 83.14 678.34 99.33 729.24 109.21C765.38 116.23 801.76 120.31 838.2 121.93C915.42 125.16 993.6 118.52 1074.49 116.42C1097.44 115.89 1120.39 116.04 1143.34 117.02C1248.69 121.53 1347.79 152.31 1442.5 197.7C1501.22 225.84 1557.87 258.91 1615.66 290.85C1656.77 313.7 1698.5 335.39 1740.44 356.25" stroke="url(#paint8_radial_595_1187)" stroke-miterlimit="10"/>
<path d="M4.15002 -39.33C90.58 -51.05 176.81 -59.92 261.77 -47.81C366.82 -32.83 463.44 12.62 564.05 54.22C569.05 56.29 574.06 58.34 579.09 60.37C628.15 80.09 677.68 96.45 728.33 106.7C764.33 113.98 800.54 118.42 836.84 120.41C913.71 124.4 991.59 118.56 1072.56 116.41C1095.46 115.87 1118.37 115.96 1141.28 116.85C1246.41 120.9 1345.47 150.25 1440.27 195.04C1499.9 223.21 1557.13 256.91 1615.63 289.38C1657.21 312.62 1699.48 334.58 1741.97 355.7" stroke="url(#paint9_radial_595_1187)" stroke-miterlimit="10"/>
<path d="M4.5 -37.6499C90.7 -49.8199 176.68 -59.2499 261.43 -48.0299C366.29 -34.1399 462.99 9.77006 563.66 51.2201C568.65 53.2801 573.66 55.3201 578.68 57.3401C627.69 77.0201 677.04 93.5701 727.43 104.18C763.29 111.73 799.33 116.53 835.49 118.88C912 123.64 989.6 118.59 1070.63 116.38C1093.49 115.84 1116.35 115.87 1139.22 116.65C1244.14 120.25 1343.14 148.15 1438.04 192.35C1498.57 220.55 1556.39 254.87 1615.6 287.88C1657.66 311.5 1700.46 333.75 1743.5 355.12" stroke="url(#paint10_radial_595_1187)" stroke-miterlimit="10"/>
<path d="M4.84998 -35.98C90.82 -48.61 176.55 -58.59 261.09 -48.26C365.76 -35.47 462.53 6.92001 563.27 48.21C568.25 50.26 573.25 52.29 578.27 54.31C627.24 73.96 676.4 90.69 726.54 101.67C762.26 109.49 798.13 114.65 834.15 117.37C910.3 122.89 987.61 118.64 1068.71 116.38C1091.52 115.83 1114.35 115.8 1137.18 116.48C1241.88 119.62 1340.85 146.07 1435.82 189.69C1497.27 217.91 1555.66 252.86 1615.58 286.42C1658.11 310.43 1701.45 332.95 1745.04 354.59" stroke="url(#paint11_radial_595_1187)" stroke-miterlimit="10"/>
<path d="M5.20001 -34.2999C90.94 -47.3799 176.42 -57.9199 260.75 -48.4799C365.23 -36.7799 462.08 4.07006 562.87 45.2201C567.85 47.2601 572.84 49.2801 577.85 51.2901C626.77 70.9001 675.75 87.8101 725.64 99.1601C761.22 107.25 796.93 112.77 832.79 115.85C908.58 122.13 985.6 118.51 1066.78 116.37C1089.54 115.77 1112.33 115.72 1135.12 116.31C1239.6 118.99 1338.53 143.99 1433.59 187.03C1495.95 215.27 1554.92 250.85 1615.56 284.95C1658.56 309.34 1702.44 332.14 1746.58 354.04" stroke="url(#paint12_radial_595_1187)" stroke-miterlimit="10"/>
<path d="M5.54999 -32.63C91.06 -46.16 176.29 -57.26 260.41 -48.71C364.7 -38.11 461.63 1.21001 562.48 42.21C567.45 44.24 572.44 46.25 577.44 48.26C626.32 67.84 675.11 84.93 724.75 96.64C760.18 105 795.73 110.87 831.45 114.33C906.88 121.37 983.62 118.54 1064.86 116.36C1087.58 115.75 1110.32 115.65 1133.07 116.13C1237.34 118.35 1336.23 141.88 1431.37 184.37C1494.64 212.62 1554.19 248.85 1615.54 283.48C1659.02 308.26 1703.43 331.34 1748.12 353.49" stroke="url(#paint13_radial_595_1187)" stroke-miterlimit="10"/>
<path d="M5.90002 -30.95C91.18 -44.94 176.16 -56.59 260.07 -48.93C364.17 -39.42 461.18 -1.62999 562.08 39.21C567.04 41.22 572.02 43.23 577.01 45.24C625.84 64.78 674.46 82.05 723.84 94.13C759.13 102.76 794.51 108.99 830.09 112.81C905.16 120.61 981.61 118.57 1062.92 116.35C1085.59 115.73 1108.29 115.57 1131 115.96C1235.05 117.72 1333.92 139.78 1429.13 181.71C1493.32 209.98 1553.52 246.71 1615.5 282.01C1659.5 307.08 1704.4 330.53 1749.64 352.95" stroke="url(#paint14_radial_595_1187)" stroke-miterlimit="10"/>
<path d="M6.25 -29.2699C91.3 -43.7099 176.03 -55.9299 259.73 -49.1499C363.64 -40.7399 460.72 -4.47994 561.69 36.2101C566.65 38.2101 571.62 40.2101 576.6 42.2101C625.39 61.7201 673.82 79.1701 722.95 91.6101C758.1 100.51 793.31 107.1 828.75 111.28C903.47 119.84 979.63 118.59 1061.01 116.33C1083.64 115.7 1106.3 115.49 1128.96 115.77C1232.8 117.07 1331.63 137.65 1426.92 179.03C1492.03 207.3 1552.8 244.67 1615.49 280.53C1659.97 305.97 1705.4 329.71 1751.19 352.39" stroke="url(#paint15_radial_595_1187)" stroke-miterlimit="10"/>
<path d="M6.59998 -27.6C91.42 -42.5 175.9 -55.27 259.39 -49.38C363.1 -42.07 460.27 -7.32998 561.3 33.2C566.25 35.19 571.21 37.18 576.19 39.18C624.94 58.65 673.18 76.29 722.06 89.1C757.07 98.27 792.11 105.21 827.41 109.77C901.77 119.09 977.64 118.62 1059.09 116.33C1081.67 115.69 1104.29 115.42 1126.91 115.6C1230.53 116.44 1329.35 135.54 1424.69 176.37C1490.72 204.65 1552.07 242.65 1615.46 279.06C1660.42 304.88 1706.38 328.9 1752.71 351.85" stroke="url(#paint16_radial_595_1187)" stroke-miterlimit="10"/>
<path d="M6.95001 -25.92C91.54 -41.27 175.77 -54.6 259.06 -49.6C362.58 -43.39 459.83 -10.18 560.91 30.2C565.85 32.18 570.81 34.17 575.78 36.16C624.48 55.6 672.54 73.42 721.17 86.59C756.04 96.03 790.91 103.33 826.06 108.25C900.06 118.33 975.64 118.65 1057.17 116.32C1079.71 115.67 1102.28 115.53 1124.86 115.43C1228.26 114.96 1327.06 133.42 1422.47 173.71C1489.43 201.98 1551.35 240.63 1615.45 277.59C1660.89 303.79 1707.38 328.1 1754.26 351.3" stroke="url(#paint17_radial_595_1187)" stroke-miterlimit="10"/>
<path d="M7.29999 -24.24C91.66 -40.04 175.64 -53.94 258.72 -49.83C362.05 -44.72 459.38 -13.04 560.52 27.19C565.45 29.16 570.4 31.14 575.36 33.12C624.02 52.52 671.89 70.52 720.27 84.06C755 93.78 789.7 101.43 824.71 106.72C898.35 117.56 973.65 118.67 1055.24 116.3C1077.73 115.65 1100.26 115.44 1122.8 115.24C1225.98 114.35 1324.77 131.27 1420.24 171.03C1488.12 199.3 1550.62 238.6 1615.42 276.1C1661.34 302.68 1708.36 327.27 1755.79 350.73" stroke="url(#paint18_radial_595_1187)" stroke-miterlimit="10"/>
<path d="M7.64999 -22.5699C91.78 -38.8299 175.51 -53.2799 258.38 -50.0599C361.52 -46.0499 458.93 -15.8899 560.13 24.1801C565.06 26.1401 570 28.1101 574.95 30.0901C623.56 49.4601 671.25 67.6401 719.38 81.5401C753.96 91.5301 788.51 99.5301 823.37 105.19C896.65 116.79 971.66 118.69 1053.32 116.28C1075.77 115.62 1098.26 115.17 1120.75 115.06C1223.72 114.53 1322.49 129.13 1418.02 168.36C1486.83 196.62 1549.89 236.57 1615.4 274.63C1661.8 301.58 1709.35 326.46 1757.33 350.19" stroke="url(#paint19_radial_595_1187)" stroke-miterlimit="10"/>
<path d="M8 -20.89C91.9 -37.6 175.38 -52.62 258.04 -50.28C360.99 -47.37 458.47 -18.74 559.73 21.18C564.65 23.13 569.58 25.09 574.53 27.06C623.1 46.39 670.6 64.76 718.48 79.0201C752.92 89.2801 787.3 97.64 822.02 103.67C894.94 116.03 969.67 118.72 1051.4 116.26C1073.8 115.59 1096.25 115.09 1118.7 114.87C1221.45 113.88 1320.21 126.97 1415.8 165.68C1485.54 193.93 1549.17 234.53 1615.38 273.14C1662.25 300.47 1710.34 325.63 1758.87 349.62" stroke="url(#paint20_radial_595_1187)" stroke-miterlimit="10"/>
<path d="M8.35001 -19.2199C92.02 -36.3899 175.25 -51.9599 257.7 -50.5099C360.45 -48.6999 458.02 -21.5899 559.34 18.1701C564.25 20.1001 569.18 22.0601 574.12 24.0301C622.64 43.3301 669.96 61.88 717.59 76.51C751.89 87.04 786.1 95.7601 820.68 102.15C893.24 115.27 967.68 118.74 1049.48 116.25C1071.84 115.57 1094.24 115.01 1116.66 114.69C1219.19 113.24 1317.95 124.81 1413.59 163.01C1484.26 191.24 1548.46 232.5 1615.37 271.66C1662.72 299.37 1711.34 324.82 1760.42 349.06" stroke="url(#paint21_radial_595_1187)" stroke-miterlimit="10"/>
<path d="M8.69 -17.54C92.13 -35.16 175.1 -51.3 257.35 -50.73C359.91 -50.02 457.56 -24.44 558.94 15.17C563.85 17.09 568.76 19.04 573.69 21.01C622.17 40.27 669.3 59.01 716.67 74C750.83 84.8 784.87 93.88 819.3 100.63C891.51 114.51 965.66 118.77 1047.53 116.24C1069.84 115.55 1092.2 114.93 1114.58 114.52C1216.89 112.61 1315.64 122.66 1411.33 160.35C1482.93 188.56 1547.69 230.48 1615.31 270.19C1663.14 298.28 1712.29 324.01 1761.92 348.52" stroke="url(#paint22_radial_595_1187)" stroke-miterlimit="10"/>
<path d="M9.04001 -15.86C92.26 -33.93 174.98 -49.82 257.01 -50.95C359.37 -52.37 457.11 -27.28 558.54 12.18C563.44 14.09 568.35 16.03 573.27 17.99C621.71 37.22 668.65 56.14 715.77 71.49C749.78 82.57 783.66 91.99 817.95 99.12C889.8 113.76 963.66 118.81 1045.6 116.24C1067.86 115.54 1090.18 114.87 1112.52 114.35C1214.62 111.98 1313.36 120.5 1409.1 157.7C1481.64 185.88 1546.96 228.48 1615.29 268.74C1663.6 297.2 1713.28 323.22 1763.46 347.99" stroke="url(#paint23_radial_595_1187)" stroke-miterlimit="10"/>
<path d="M9.39001 -14.1899C92.38 -32.7099 174.84 -49.9799 256.68 -51.1799C358.85 -52.6799 456.66 -30.1399 558.16 9.17005C563.05 11.0701 567.95 13.0001 572.87 14.9601C621.26 34.1501 668.02 53.2601 714.89 68.9701C748.76 80.3201 782.47 90.1 816.62 97.59C888.11 112.99 961.68 118.83 1043.69 116.22C1065.91 115.51 1088.19 114.78 1110.48 114.17C1212.36 111.35 1311.11 118.33 1406.89 155.03C1480.36 183.18 1546.25 226.45 1615.28 267.26C1664.07 296.1 1714.28 322.4 1765.01 347.44" stroke="url(#paint24_radial_595_1187)" stroke-miterlimit="10"/>
<path d="M9.73999 -12.5099C92.5 -31.4899 174.71 -49.3199 256.34 -51.3999C358.32 -53.9999 456.21 -32.9899 557.76 6.17006C562.64 8.06006 567.54 9.98006 572.45 11.9401C620.8 31.1001 667.37 50.4001 713.99 66.4601C747.72 78.0801 781.27 88.2201 815.27 96.0801C886.4 112.24 959.69 118.87 1041.77 116.22C1063.94 115.51 1086.18 114.72 1108.43 114C1210.09 110.72 1308.84 116.16 1404.67 152.37C1479.08 180.49 1545.53 224.43 1615.26 265.79C1664.53 295.01 1715.27 321.6 1766.55 346.89" stroke="url(#paint25_radial_595_1187)" stroke-miterlimit="10"/>
<path d="M10.09 -10.8299C92.62 -30.2699 174.58 -48.6599 256 -51.6299C357.78 -55.3299 455.76 -35.8399 557.37 3.16006C562.25 5.04006 567.13 6.95006 572.03 8.90006C620.33 28.0201 666.72 47.5101 713.09 63.9401C746.68 75.8401 780.06 86.3201 813.91 94.5501C884.68 111.47 957.68 118.88 1039.83 116.2C1061.96 115.48 1084.15 114.63 1106.36 113.81C1207.8 110.07 1306.56 113.96 1402.43 149.69C1477.78 177.77 1544.78 222.39 1615.22 264.3C1664.96 293.9 1716.24 320.77 1768.07 346.32" stroke="url(#paint26_radial_595_1187)" stroke-miterlimit="10"/>
<path d="M10.44 -9.15998C92.74 -29.05 174.44 -48.01 255.66 -51.85C357.25 -56.66 455.31 -38.69 556.98 0.160027C561.85 2.03003 566.73 3.93002 571.62 5.88002C619.88 24.97 666.08 44.64 712.2 61.43C745.64 73.6 778.86 84.44 812.57 93.03C882.98 110.71 955.7 118.91 1037.92 116.19C1060 115.46 1082.15 114.56 1104.32 113.64C1205.54 109.45 1304.3 111.78 1400.21 147.03C1476.5 175.07 1544.06 220.37 1615.2 262.84C1665.42 292.81 1717.23 319.97 1769.61 345.79" stroke="url(#paint27_radial_595_1187)" stroke-miterlimit="10"/>
<path d="M10.79 -7.47993C92.86 -27.8199 174.31 -47.3499 255.32 -52.0799C356.71 -57.9999 454.85 -41.5399 556.58 -2.84993C561.44 -0.989934 566.31 0.900061 571.2 2.84006C619.41 21.8901 665.43 41.7501 711.3 58.9001C744.6 71.3501 777.65 82.5401 811.22 91.5001C881.28 109.94 953.7 118.93 1035.99 116.17C1058.03 115.43 1080.14 114.47 1102.26 113.45C1203.26 108.8 1302.03 109.58 1397.98 144.35C1475.21 172.34 1543.33 218.34 1615.18 261.35C1665.88 291.7 1718.22 319.14 1771.15 345.22" stroke="url(#paint28_radial_595_1187)" stroke-miterlimit="10"/>
<path d="M11.14 -5.80994C92.98 -26.5999 174.17 -46.6899 254.98 -52.2999C356.17 -59.3199 454.4 -44.3899 556.19 -5.84994C561.05 -4.00994 565.91 -2.11994 570.79 -0.179939C618.96 18.8401 664.79 38.8901 710.41 56.3901C743.56 69.1101 776.45 80.6501 809.88 89.9801C879.58 109.18 951.72 118.96 1034.07 116.15C1056.06 115.4 1078.13 114.38 1100.21 113.27C1201 108.16 1299.77 107.38 1395.76 141.68C1473.94 169.62 1542.61 216.31 1615.16 259.87C1666.34 290.6 1719.21 318.33 1772.69 344.66" stroke="url(#paint29_radial_595_1187)" stroke-miterlimit="10"/>
<path d="M11.49 -4.12996C93.1 -25.38 174.04 -46.04 254.64 -52.53C355.64 -60.66 453.95 -47.25 555.8 -8.85997C560.65 -7.02997 565.51 -5.14996 570.37 -3.20996C618.5 15.77 664.13 36.01 709.51 53.87C742.52 66.87 775.24 78.76 808.53 88.46C877.87 108.42 949.72 118.99 1032.15 116.14C1054.1 115.38 1076.12 114.27 1098.16 113.09C1198.72 107.34 1297.52 105.18 1393.54 139.01C1472.66 166.89 1541.88 214.28 1615.14 258.39C1666.8 289.5 1720.2 317.51 1774.22 344.11" stroke="url(#paint30_radial_595_1187)" stroke-miterlimit="10"/>
<path d="M11.84 -2.44996C93.22 -24.16 173.9 -45.38 254.3 -52.75C355.1 -61.99 453.5 -50.09 555.4 -11.86C560.24 -10.04 565.09 -8.16996 569.95 -6.23996C618.03 12.71 663.45 33.22 708.61 51.36C741.45 64.7 774.03 76.88 807.17 86.94C876.15 107.67 947.71 119.02 1030.21 116.13C1052.11 115.36 1074.09 114.2 1096.1 112.91C1196.44 106.72 1295.25 102.97 1391.31 136.34C1471.38 164.16 1541.15 212.25 1615.11 256.92C1667.25 288.4 1721.18 316.7 1775.75 343.56" stroke="url(#paint31_radial_595_1187)" stroke-miterlimit="10"/>
<path d="M12.19 -0.779976C93.34 -22.93 173.76 -44.73 253.96 -52.98C354.56 -63.33 453.05 -52.95 555.01 -14.87C559.84 -13.06 564.69 -11.19 569.54 -9.26998C617.58 9.64002 662.81 30.34 707.72 48.84C740.42 62.45 772.84 74.99 805.83 85.42C874.45 106.91 945.73 119.05 1028.29 116.12C1050.15 115.35 1072.08 114.13 1094.05 112.74C1194.17 106.11 1292.99 100.77 1389.08 133.69C1470.1 161.44 1540.42 210.24 1615.08 255.46C1667.7 287.32 1722.16 315.9 1777.28 343.03" stroke="url(#paint32_radial_595_1187)" stroke-miterlimit="10"/>
<path d="M12.54 0.90004C93.46 -21.71 173.62 -44.07 253.62 -53.2C354.02 -64.66 452.59 -55.79 554.62 -17.87C559.45 -16.07 564.28 -14.21 569.13 -12.3C617.12 6.58004 662.17 27.45 706.82 46.32C739.38 60.2 771.63 73.09 804.48 83.89C872.74 106.14 943.73 119.06 1026.37 116.1C1048.18 115.32 1070.07 114.04 1092 112.55C1191.9 105.48 1290.74 98.54 1386.86 131.01C1468.82 158.69 1539.7 208.21 1615.06 253.97C1668.15 286.21 1723.15 315.08 1778.82 342.46" stroke="url(#paint33_radial_595_1187)" stroke-miterlimit="10"/>
<path d="M12.89 2.58005C93.58 -20.4899 173.49 -43.42 253.28 -53.42C353.48 -65.98 452.14 -58.6399 554.22 -20.86C559.04 -19.07 563.87 -17.22 568.7 -15.31C616.65 3.53005 661.51 24.5901 705.91 43.8201C738.32 57.9701 770.41 71.2201 803.12 82.3801C871.03 105.39 941.73 119.1 1024.43 116.1C1046.19 115.31 1068.04 113.98 1089.93 112.39C1189.61 104.88 1288.46 96.34 1384.62 128.36C1467.53 155.97 1538.95 206.2 1615.03 252.51C1668.6 285.13 1724.13 314.28 1780.35 341.92" stroke="url(#paint34_radial_595_1187)" stroke-miterlimit="10"/>
<path d="M13.24 4.25002C93.7 -19.27 173.33 -42.92 252.94 -53.65C352.91 -67.51 451.69 -61.5 553.83 -23.87C558.64 -22.09 563.46 -20.25 568.29 -18.34C616.19 0.470011 660.87 21.71 705.02 41.3C737.29 55.72 769.21 69.33 801.77 80.86C869.32 104.63 939.73 119.13 1022.51 116.09C1044.23 115.29 1066.04 113.91 1087.88 112.21C1187.34 104.27 1286.21 94.12 1382.4 125.69C1466.27 153.22 1538.23 204.17 1615.01 251.03C1669.06 284.02 1725.12 313.46 1781.89 341.37" stroke="url(#paint35_radial_595_1187)" stroke-miterlimit="10"/>
<path d="M13.59 5.93006C93.82 -18.0499 173.19 -42.2399 252.6 -53.8699C352.37 -68.8099 451.24 -64.3399 553.43 -26.8699C558.23 -25.1099 563.05 -23.2699 567.87 -21.3699C615.73 -2.59994 660.22 18.8301 704.12 38.7901C736.25 53.4801 768 67.4401 800.42 79.3401C867.61 103.87 937.74 119.16 1020.58 116.08C1042.25 115.27 1064.02 113.84 1085.82 112.03C1185.06 103.65 1283.95 91.8901 1380.17 123.02C1464.99 150.46 1537.5 202.14 1614.98 249.56C1669.51 282.93 1726.1 312.65 1783.42 340.82" stroke="url(#paint36_radial_595_1187)" stroke-miterlimit="10"/>
<path d="M13.94 7.61003C93.94 -16.82 173.05 -41.56 252.27 -54.1C351.84 -70.12 450.79 -67.2 553.05 -29.88C557.85 -28.13 562.65 -26.3 567.47 -24.4C615.29 -5.65997 659.59 15.94 703.24 36.27C735.23 51.23 766.81 65.55 799.09 77.82C865.92 103.11 935.76 119.19 1018.67 116.07C1040.3 115.26 1062.02 113.77 1083.78 111.86C1182.8 103.04 1281.7 89.66 1377.96 120.36C1463.73 147.71 1536.79 200.12 1614.97 248.09C1669.98 281.84 1727.1 311.85 1784.97 340.27" stroke="url(#paint37_radial_595_1187)" stroke-miterlimit="10"/>
<path d="M14.29 9.28004C94.06 -15.6 172.91 -40.88 251.93 -54.32C351.3 -71.43 450.34 -70.05 552.65 -32.88C557.44 -31.14 562.24 -29.32 567.04 -27.42C614.81 -8.71996 658.93 13.07 702.33 33.76C734.17 48.99 765.59 63.67 797.73 76.3C864.2 102.35 933.75 119.22 1016.74 116.06C1038.32 115.24 1060 113.7 1081.72 111.68C1180.52 102.42 1279.44 87.43 1375.72 117.69C1462.44 144.95 1536.05 198.1 1614.93 246.61C1670.42 280.73 1728.07 311.03 1786.49 339.72" stroke="url(#paint38_radial_595_1187)" stroke-miterlimit="10"/>
<path d="M14.64 10.9601C94.18 -14.3799 172.78 -40.1999 251.59 -54.5499C350.76 -72.7299 449.89 -72.8999 552.26 -35.8899C557.04 -34.1599 561.83 -32.3499 566.63 -30.4599C614.36 -11.7899 658.29 10.1801 701.44 31.2301C733.14 46.7301 764.4 61.77 796.39 74.76C862.5 101.57 931.77 119.23 1014.82 116.02C1036.36 115.19 1057.99 113.59 1079.67 111.48C1178.26 101.78 1277.19 85.17 1373.5 115C1461.18 142.16 1535.32 196.05 1614.92 245.11C1670.89 279.61 1729.07 310.19 1788.04 339.14" stroke="url(#paint39_radial_595_1187)" stroke-miterlimit="10"/>
<path d="M14.99 12.6301C94.3 -13.1599 172.64 -39.5299 251.25 -54.7699C350.23 -74.0299 449.44 -75.7399 551.87 -38.8899C556.65 -37.1699 561.43 -35.3699 566.22 -33.4799C613.9 -14.8499 657.64 7.31006 700.55 28.7201C732.11 44.4901 763.2 59.8801 795.04 73.2501C860.8 100.82 929.77 119.27 1012.9 116.02C1034.39 115.18 1055.99 113.53 1077.63 111.31C1176 101.17 1274.95 82.9301 1371.29 112.34C1459.92 139.4 1534.61 194.03 1614.91 243.65C1671.35 278.53 1730.07 309.39 1789.59 338.61" stroke="url(#paint40_radial_595_1187)" stroke-miterlimit="10"/>
<path d="M15.34 14.31C198.69 -46.53 376.63 -110.99 565.8 -36.51C720.9 24.04 832.73 124.2 1010.97 116.01C1129.9 112.08 1251.76 73.37 1369.05 109.68C1458.85 135.91 1533.62 192.42 1614.87 242.18C1671.62 277.72 1731.04 308.59 1791.11 338.06" stroke="url(#paint41_radial_595_1187)" stroke-miterlimit="10"/>
<defs>
<radialGradient id="paint0_radial_595_1187" cx="0" cy="0" r="1" gradientUnits="userSpaceOnUse" gradientTransform="translate(864.66 149.884) scale(628.73 502.984)">
<stop offset="0.19" stop-color="#1CAADA" stop-opacity="0.9"/>
<stop offset="0.57" stop-color="#ED4562" stop-opacity="0.6"/>
<stop offset="0.78" stop-color="#9A3380" stop-opacity="0.6"/>
<stop offset="1" stop-opacity="0.4"/>
</radialGradient>
<radialGradient id="paint1_radial_595_1187" cx="0" cy="0" r="1" gradientUnits="userSpaceOnUse" gradientTransform="translate(865.61 150.2) scale(628.99 503.192)">
<stop offset="0.19" stop-color="#1CAADA" stop-opacity="0.9"/>
<stop offset="0.57" stop-color="#ED4562" stop-opacity="0.6"/>
<stop offset="0.78" stop-color="#9A3380" stop-opacity="0.6"/>
<stop offset="1" stop-opacity="0.4"/>
</radialGradient>
<radialGradient id="paint2_radial_595_1187" cx="0" cy="0" r="1" gradientUnits="userSpaceOnUse" gradientTransform="translate(866.55 150.384) scale(629.28 503.424)">
<stop offset="0.19" stop-color="#1CAADA" stop-opacity="0.9"/>
<stop offset="0.57" stop-color="#ED4562" stop-opacity="0.6"/>
<stop offset="0.78" stop-color="#9A3380" stop-opacity="0.6"/>
<stop offset="1" stop-opacity="0.4"/>
</radialGradient>
<radialGradient id="paint3_radial_595_1187" cx="0" cy="0" r="1" gradientUnits="userSpaceOnUse" gradientTransform="translate(867.49 150.542) scale(629.57 503.656)">
<stop offset="0.19" stop-color="#1CAADA" stop-opacity="0.9"/>
<stop offset="0.57" stop-color="#ED4562" stop-opacity="0.6"/>
<stop offset="0.78" stop-color="#9A3380" stop-opacity="0.6"/>
<stop offset="1" stop-opacity="0.4"/>
</radialGradient>
<radialGradient id="paint4_radial_595_1187" cx="0" cy="0" r="1" gradientUnits="userSpaceOnUse" gradientTransform="translate(868.43 150.666) scale(629.86 503.888)">
<stop offset="0.19" stop-color="#1CAADA" stop-opacity="0.9"/>
<stop offset="0.57" stop-color="#ED4562" stop-opacity="0.6"/>
<stop offset="0.78" stop-color="#9A3380" stop-opacity="0.6"/>
<stop offset="1" stop-opacity="0.4"/>
</radialGradient>
<radialGradient id="paint5_radial_595_1187" cx="0" cy="0" r="1" gradientUnits="userSpaceOnUse" gradientTransform="translate(869.37 150.792) scale(630.16 504.128)">
<stop offset="0.19" stop-color="#1CAADA" stop-opacity="0.9"/>
<stop offset="0.57" stop-color="#ED4562" stop-opacity="0.6"/>
<stop offset="0.78" stop-color="#9A3380" stop-opacity="0.6"/>
<stop offset="1" stop-opacity="0.4"/>
</radialGradient>
<radialGradient id="paint6_radial_595_1187" cx="0" cy="0" r="1" gradientUnits="userSpaceOnUse" gradientTransform="translate(870.31 150.884) scale(630.46 504.368)">
<stop offset="0.19" stop-color="#1CAADA" stop-opacity="0.9"/>
<stop offset="0.57" stop-color="#ED4562" stop-opacity="0.6"/>
<stop offset="0.78" stop-color="#9A3380" stop-opacity="0.6"/>
<stop offset="1" stop-opacity="0.4"/>
</radialGradient>
<radialGradient id="paint7_radial_595_1187" cx="0" cy="0" r="1" gradientUnits="userSpaceOnUse" gradientTransform="translate(871.25 150.95) scale(630.77 504.616)">
<stop offset="0.19" stop-color="#1CAADA" stop-opacity="0.9"/>
<stop offset="0.57" stop-color="#ED4562" stop-opacity="0.6"/>
<stop offset="0.78" stop-color="#9A3380" stop-opacity="0.6"/>
<stop offset="1" stop-opacity="0.4"/>
</radialGradient>
<radialGradient id="paint8_radial_595_1187" cx="0" cy="0" r="1" gradientUnits="userSpaceOnUse" gradientTransform="translate(872.19 151) scale(631.08 504.864)">
<stop offset="0.19" stop-color="#1CAADA" stop-opacity="0.9"/>
<stop offset="0.57" stop-color="#ED4562" stop-opacity="0.6"/>
<stop offset="0.78" stop-color="#9A3380" stop-opacity="0.6"/>
<stop offset="1" stop-opacity="0.4"/>
</radialGradient>
<radialGradient id="paint9_radial_595_1187" cx="0" cy="0" r="1" gradientUnits="userSpaceOnUse" gradientTransform="translate(873.14 151.016) scale(631.4 505.12)">
<stop offset="0.19" stop-color="#1CAADA" stop-opacity="0.9"/>
<stop offset="0.57" stop-color="#ED4562" stop-opacity="0.6"/>
<stop offset="0.78" stop-color="#9A3380" stop-opacity="0.6"/>
<stop offset="1" stop-opacity="0.4"/>
</radialGradient>
<radialGradient id="paint10_radial_595_1187" cx="0" cy="0" r="1" gradientUnits="userSpaceOnUse" gradientTransform="translate(874.08 151.016) scale(631.72 505.376)">
<stop offset="0.19" stop-color="#1CAADA" stop-opacity="0.9"/>
<stop offset="0.57" stop-color="#ED4562" stop-opacity="0.6"/>
<stop offset="0.78" stop-color="#9A3380" stop-opacity="0.6"/>
<stop offset="1" stop-opacity="0.4"/>
</radialGradient>
<radialGradient id="paint11_radial_595_1187" cx="0" cy="0" r="1" gradientUnits="userSpaceOnUse" gradientTransform="translate(875.02 150.992) scale(632.04 505.632)">
<stop offset="0.19" stop-color="#1CAADA" stop-opacity="0.9"/>
<stop offset="0.57" stop-color="#ED4562" stop-opacity="0.6"/>
<stop offset="0.78" stop-color="#9A3380" stop-opacity="0.6"/>
<stop offset="1" stop-opacity="0.4"/>
</radialGradient>
<radialGradient id="paint12_radial_595_1187" cx="0" cy="0" r="1" gradientUnits="userSpaceOnUse" gradientTransform="translate(875.96 150.942) scale(632.37 505.896)">
<stop offset="0.19" stop-color="#1CAADA" stop-opacity="0.9"/>
<stop offset="0.57" stop-color="#ED4562" stop-opacity="0.6"/>
<stop offset="0.78" stop-color="#9A3380" stop-opacity="0.6"/>
<stop offset="1" stop-opacity="0.4"/>
</radialGradient>
<radialGradient id="paint13_radial_595_1187" cx="0" cy="0" r="1" gradientUnits="userSpaceOnUse" gradientTransform="translate(876.9 150.866) scale(632.7 506.16)">
<stop offset="0.19" stop-color="#1CAADA" stop-opacity="0.9"/>
<stop offset="0.57" stop-color="#ED4562" stop-opacity="0.6"/>
<stop offset="0.78" stop-color="#9A3380" stop-opacity="0.6"/>
<stop offset="1" stop-opacity="0.4"/>
</radialGradient>
<radialGradient id="paint14_radial_595_1187" cx="0" cy="0" r="1" gradientUnits="userSpaceOnUse" gradientTransform="translate(877.84 150.758) scale(633.04 506.432)">
<stop offset="0.19" stop-color="#1CAADA" stop-opacity="0.9"/>
<stop offset="0.57" stop-color="#ED4562" stop-opacity="0.6"/>
<stop offset="0.78" stop-color="#9A3380" stop-opacity="0.6"/>
<stop offset="1" stop-opacity="0.4"/>
</radialGradient>
<radialGradient id="paint15_radial_595_1187" cx="0" cy="0" r="1" gradientUnits="userSpaceOnUse" gradientTransform="translate(878.78 150.634) scale(633.38 506.704)">
<stop offset="0.19" stop-color="#1CAADA" stop-opacity="0.9"/>
<stop offset="0.57" stop-color="#ED4562" stop-opacity="0.6"/>
<stop offset="0.78" stop-color="#9A3380" stop-opacity="0.6"/>
<stop offset="1" stop-opacity="0.4"/>
</radialGradient>
<radialGradient id="paint16_radial_595_1187" cx="0" cy="0" r="1" gradientUnits="userSpaceOnUse" gradientTransform="translate(879.72 150.466) scale(633.73 506.984)">
<stop offset="0.19" stop-color="#1CAADA" stop-opacity="0.9"/>
<stop offset="0.57" stop-color="#ED4562" stop-opacity="0.6"/>
<stop offset="0.78" stop-color="#9A3380" stop-opacity="0.6"/>
<stop offset="1" stop-opacity="0.4"/>
</radialGradient>
<radialGradient id="paint17_radial_595_1187" cx="0" cy="0" r="1" gradientUnits="userSpaceOnUse" gradientTransform="translate(880.67 150.284) scale(634.08 507.264)">
<stop offset="0.19" stop-color="#1CAADA" stop-opacity="0.9"/>
<stop offset="0.57" stop-color="#ED4562" stop-opacity="0.6"/>
<stop offset="0.78" stop-color="#9A3380" stop-opacity="0.6"/>
<stop offset="1" stop-opacity="0.4"/>
</radialGradient>
<radialGradient id="paint18_radial_595_1187" cx="0" cy="0" r="1" gradientUnits="userSpaceOnUse" gradientTransform="translate(881.61 150.058) scale(634.44 507.552)">
<stop offset="0.19" stop-color="#1CAADA" stop-opacity="0.9"/>
<stop offset="0.57" stop-color="#ED4562" stop-opacity="0.6"/>
<stop offset="0.78" stop-color="#9A3380" stop-opacity="0.6"/>
<stop offset="1" stop-opacity="0.4"/>
</radialGradient>
<radialGradient id="paint19_radial_595_1187" cx="0" cy="0" r="1" gradientUnits="userSpaceOnUse" gradientTransform="translate(882.55 149.808) scale(634.8 507.84)">
<stop offset="0.19" stop-color="#1CAADA" stop-opacity="0.9"/>
<stop offset="0.57" stop-color="#ED4562" stop-opacity="0.6"/>
<stop offset="0.78" stop-color="#9A3380" stop-opacity="0.6"/>
<stop offset="1" stop-opacity="0.4"/>
</radialGradient>
<radialGradient id="paint20_radial_595_1187" cx="0" cy="0" r="1" gradientUnits="userSpaceOnUse" gradientTransform="translate(883.49 149.534) scale(635.17 508.136)">
<stop offset="0.19" stop-color="#1CAADA" stop-opacity="0.9"/>
<stop offset="0.57" stop-color="#ED4562" stop-opacity="0.6"/>
<stop offset="0.78" stop-color="#9A3380" stop-opacity="0.6"/>
<stop offset="1" stop-opacity="0.4"/>
</radialGradient>
<radialGradient id="paint21_radial_595_1187" cx="0" cy="0" r="1" gradientUnits="userSpaceOnUse" gradientTransform="translate(884.43 149.216) scale(635.54 508.432)">
<stop offset="0.19" stop-color="#1CAADA" stop-opacity="0.9"/>
<stop offset="0.57" stop-color="#ED4562" stop-opacity="0.6"/>
<stop offset="0.78" stop-color="#9A3380" stop-opacity="0.6"/>
<stop offset="1" stop-opacity="0.4"/>
</radialGradient>
<radialGradient id="paint22_radial_595_1187" cx="0" cy="0" r="1" gradientUnits="userSpaceOnUse" gradientTransform="translate(885.37 148.866) scale(635.92 508.736)">
<stop offset="0.19" stop-color="#1CAADA" stop-opacity="0.9"/>
<stop offset="0.57" stop-color="#ED4562" stop-opacity="0.6"/>
<stop offset="0.78" stop-color="#9A3380" stop-opacity="0.6"/>
<stop offset="1" stop-opacity="0.4"/>
</radialGradient>
<radialGradient id="paint23_radial_595_1187" cx="0" cy="0" r="1" gradientUnits="userSpaceOnUse" gradientTransform="translate(886.31 148.458) scale(636.31 509.048)">
<stop offset="0.19" stop-color="#1CAADA" stop-opacity="0.9"/>
<stop offset="0.57" stop-color="#ED4562" stop-opacity="0.6"/>
<stop offset="0.78" stop-color="#9A3380" stop-opacity="0.6"/>
<stop offset="1" stop-opacity="0.4"/>
</radialGradient>
<radialGradient id="paint24_radial_595_1187" cx="0" cy="0" r="1" gradientUnits="userSpaceOnUse" gradientTransform="translate(887.25 148.058) scale(636.69 509.352)">
<stop offset="0.19" stop-color="#1CAADA" stop-opacity="0.9"/>
<stop offset="0.57" stop-color="#ED4562" stop-opacity="0.6"/>
<stop offset="0.78" stop-color="#9A3380" stop-opacity="0.6"/>
<stop offset="1" stop-opacity="0.4"/>
</radialGradient>
<radialGradient id="paint25_radial_595_1187" cx="0" cy="0" r="1" gradientUnits="userSpaceOnUse" gradientTransform="translate(888.2 147.6) scale(637.09 509.672)">
<stop offset="0.19" stop-color="#1CAADA" stop-opacity="0.9"/>
<stop offset="0.57" stop-color="#ED4562" stop-opacity="0.6"/>
<stop offset="0.78" stop-color="#9A3380" stop-opacity="0.6"/>
<stop offset="1" stop-opacity="0.4"/>
</radialGradient>
<radialGradient id="paint26_radial_595_1187" cx="0" cy="0" r="1" gradientUnits="userSpaceOnUse" gradientTransform="translate(889.14 147.1) scale(637.49 509.992)">
<stop offset="0.19" stop-color="#1CAADA" stop-opacity="0.9"/>
<stop offset="0.57" stop-color="#ED4562" stop-opacity="0.6"/>
<stop offset="0.78" stop-color="#9A3380" stop-opacity="0.6"/>
<stop offset="1" stop-opacity="0.4"/>
</radialGradient>
<radialGradient id="paint27_radial_595_1187" cx="0" cy="0" r="1" gradientUnits="userSpaceOnUse" gradientTransform="translate(890.08 146.55) scale(637.9 510.32)">
<stop offset="0.19" stop-color="#1CAADA" stop-opacity="0.9"/>
<stop offset="0.57" stop-color="#ED4562" stop-opacity="0.6"/>
<stop offset="0.78" stop-color="#9A3380" stop-opacity="0.6"/>
<stop offset="1" stop-opacity="0.4"/>
</radialGradient>
<radialGradient id="paint28_radial_595_1187" cx="0" cy="0" r="1" gradientUnits="userSpaceOnUse" gradientTransform="translate(891.02 145.958) scale(638.32 510.656)">
<stop offset="0.19" stop-color="#1CAADA" stop-opacity="0.9"/>
<stop offset="0.57" stop-color="#ED4562" stop-opacity="0.6"/>
<stop offset="0.78" stop-color="#9A3380" stop-opacity="0.6"/>
<stop offset="1" stop-opacity="0.4"/>
</radialGradient>
<radialGradient id="paint29_radial_595_1187" cx="0" cy="0" r="1" gradientUnits="userSpaceOnUse" gradientTransform="translate(891.96 145.316) scale(638.74 510.992)">
<stop offset="0.19" stop-color="#1CAADA" stop-opacity="0.9"/>
<stop offset="0.57" stop-color="#ED4562" stop-opacity="0.6"/>
<stop offset="0.78" stop-color="#9A3380" stop-opacity="0.6"/>
<stop offset="1" stop-opacity="0.4"/>
</radialGradient>
<radialGradient id="paint30_radial_595_1187" cx="0" cy="0" r="1" gradientUnits="userSpaceOnUse" gradientTransform="translate(892.9 144.634) scale(639.17 511.336)">
<stop offset="0.19" stop-color="#1CAADA" stop-opacity="0.9"/>
<stop offset="0.57" stop-color="#ED4562" stop-opacity="0.6"/>
<stop offset="0.78" stop-color="#9A3380" stop-opacity="0.6"/>
<stop offset="1" stop-opacity="0.4"/>
</radialGradient>
<radialGradient id="paint31_radial_595_1187" cx="0" cy="0" r="1" gradientUnits="userSpaceOnUse" gradientTransform="translate(893.84 143.9) scale(639.61 511.688)">
<stop offset="0.19" stop-color="#1CAADA" stop-opacity="0.9"/>
<stop offset="0.57" stop-color="#ED4562" stop-opacity="0.6"/>
<stop offset="0.78" stop-color="#9A3380" stop-opacity="0.6"/>
<stop offset="1" stop-opacity="0.4"/>
</radialGradient>
<radialGradient id="paint32_radial_595_1187" cx="0" cy="0" r="1" gradientUnits="userSpaceOnUse" gradientTransform="translate(894.78 143.108) scale(640.06 512.048)">
<stop offset="0.19" stop-color="#1CAADA" stop-opacity="0.9"/>
<stop offset="0.57" stop-color="#ED4562" stop-opacity="0.6"/>
<stop offset="0.78" stop-color="#9A3380" stop-opacity="0.6"/>
<stop offset="1" stop-opacity="0.4"/>
</radialGradient>
<radialGradient id="paint33_radial_595_1187" cx="0" cy="0" r="1" gradientUnits="userSpaceOnUse" gradientTransform="translate(895.73 142.284) scale(640.51 512.408)">
<stop offset="0.19" stop-color="#1CAADA" stop-opacity="0.9"/>
<stop offset="0.57" stop-color="#ED4562" stop-opacity="0.6"/>
<stop offset="0.78" stop-color="#9A3380" stop-opacity="0.6"/>
<stop offset="1" stop-opacity="0.4"/>
</radialGradient>
<radialGradient id="paint34_radial_595_1187" cx="0" cy="0" r="1" gradientUnits="userSpaceOnUse" gradientTransform="translate(896.67 141.392) scale(640.97 512.776)">
<stop offset="0.19" stop-color="#1CAADA" stop-opacity="0.9"/>
<stop offset="0.57" stop-color="#ED4562" stop-opacity="0.6"/>
<stop offset="0.78" stop-color="#9A3380" stop-opacity="0.6"/>
<stop offset="1" stop-opacity="0.4"/>
</radialGradient>
<radialGradient id="paint35_radial_595_1187" cx="0" cy="0" r="1" gradientUnits="userSpaceOnUse" gradientTransform="translate(897.61 140.416) scale(641.45 513.16)">
<stop offset="0.19" stop-color="#1CAADA" stop-opacity="0.9"/>
<stop offset="0.57" stop-color="#ED4562" stop-opacity="0.6"/>
<stop offset="0.78" stop-color="#9A3380" stop-opacity="0.6"/>
<stop offset="1" stop-opacity="0.4"/>
</radialGradient>
<radialGradient id="paint36_radial_595_1187" cx="0" cy="0" r="1" gradientUnits="userSpaceOnUse" gradientTransform="translate(898.55 139.458) scale(641.92 513.536)">
<stop offset="0.19" stop-color="#1CAADA" stop-opacity="0.9"/>
<stop offset="0.57" stop-color="#ED4562" stop-opacity="0.6"/>
<stop offset="0.78" stop-color="#9A3380" stop-opacity="0.6"/>
<stop offset="1" stop-opacity="0.4"/>
</radialGradient>
<radialGradient id="paint37_radial_595_1187" cx="0" cy="0" r="1" gradientUnits="userSpaceOnUse" gradientTransform="translate(899.49 138.45) scale(642.41 513.928)">
<stop offset="0.19" stop-color="#1CAADA" stop-opacity="0.9"/>
<stop offset="0.57" stop-color="#ED4562" stop-opacity="0.6"/>
<stop offset="0.78" stop-color="#9A3380" stop-opacity="0.6"/>
<stop offset="1" stop-opacity="0.4"/>
</radialGradient>
<radialGradient id="paint38_radial_595_1187" cx="0" cy="0" r="1" gradientUnits="userSpaceOnUse" gradientTransform="translate(900.43 137.392) scale(642.9 514.32)">
<stop offset="0.19" stop-color="#1CAADA" stop-opacity="0.9"/>
<stop offset="0.57" stop-color="#ED4562" stop-opacity="0.6"/>
<stop offset="0.78" stop-color="#9A3380" stop-opacity="0.6"/>
<stop offset="1" stop-opacity="0.4"/>
</radialGradient>
<radialGradient id="paint39_radial_595_1187" cx="0" cy="0" r="1" gradientUnits="userSpaceOnUse" gradientTransform="translate(901.37 136.3) scale(643.39 514.712)">
<stop offset="0.19" stop-color="#1CAADA" stop-opacity="0.9"/>
<stop offset="0.57" stop-color="#ED4562" stop-opacity="0.6"/>
<stop offset="0.78" stop-color="#9A3380" stop-opacity="0.6"/>
<stop offset="1" stop-opacity="0.4"/>
</radialGradient>
<radialGradient id="paint40_radial_595_1187" cx="0" cy="0" r="1" gradientUnits="userSpaceOnUse" gradientTransform="translate(902.31 135.166) scale(643.89 515.112)">
<stop offset="0.19" stop-color="#1CAADA" stop-opacity="0.9"/>
<stop offset="0.57" stop-color="#ED4562" stop-opacity="0.6"/>
<stop offset="0.78" stop-color="#9A3380" stop-opacity="0.6"/>
<stop offset="1" stop-opacity="0.4"/>
</radialGradient>
<radialGradient id="paint41_radial_595_1187" cx="0" cy="0" r="1" gradientUnits="userSpaceOnUse" gradientTransform="translate(903.26 134) scale(644.4 515.52)">
<stop offset="0.19" stop-color="#1CAADA" stop-opacity="0.9"/>
<stop offset="0.57" stop-color="#ED4562" stop-opacity="0.6"/>
<stop offset="0.78" stop-color="#9A3380" stop-opacity="0.6"/>
<stop offset="1" stop-opacity="0.4"/>
</radialGradient>
</defs>
</svg>
